<?xml version="1.0" encoding="UTF-8"?>
<svg version="1.1" xmlns="http://www.w3.org/2000/svg" width="1051" height="326">
<path d="M0 0 C346.83 0 693.66 0 1051 0 C1051 107.58 1051 215.16 1051 326 C704.17 326 357.34 326 0 326 C0 218.42 0 110.84 0 0 Z " fill="#090C18" transform="translate(0,0)"/>
<path d="M0 0 C65.98275862 0 65.98275862 0 77.04296875 11.0390625 C78.89493514 13.27405818 80.47093839 15.53403327 82 18 C82.65162109 19.0209375 82.65162109 19.0209375 83.31640625 20.0625 C88.28994985 29.76697532 87.73734831 44.94605383 84.5625 55.1875 C79.76074496 65.72793788 71.57346041 71.8532449 61 76 C56.91681564 77.18047369 52.95419246 77.12618067 48.734375 77.09765625 C48.03070801 77.09664917 47.32704102 77.09564209 46.60205078 77.09460449 C43.98468384 77.08939005 41.36734021 77.07542881 38.75 77.0625 C32.8925 77.041875 27.035 77.02125 21 77 C21 90.53 21 104.06 21 118 C14.07 118 7.14 118 0 118 C0 79.06 0 40.12 0 0 Z " fill="#F4F6F8" transform="translate(26,86)"/>
<path d="M0 0 C8.78438519 6.46337333 13.09619081 15.86649732 15.125 26.375 C15.77987088 33.74436982 15.17867036 39.18715374 13.125 46.375 C-5.355 46.375 -23.835 46.375 -42.875 46.375 C-40.83590679 55.55091943 -39.40596455 60.02405151 -31.875 65.375 C-27.00151911 67.81174044 -20.21034881 66.864532 -14.875 66.375 C-10.29040584 64.7549308 -7.67066837 62.49390864 -4.875 58.5625 C-4.38 57.4796875 -4.38 57.4796875 -3.875 56.375 C0.08406817 57.80808135 3.41218181 59.70641949 6.9375 62 C7.91332031 62.63164062 8.88914062 63.26328125 9.89453125 63.9140625 C10.63058594 64.39617187 11.36664062 64.87828125 12.125 65.375 C9.51380483 72.89524208 3.99074873 77.68070533 -3 81.25 C-9.21194481 84.1624856 -14.73183773 85.74520406 -21.625 85.6875 C-22.33092285 85.68186035 -23.0368457 85.6762207 -23.76416016 85.67041016 C-34.53921399 85.42143271 -43.77963327 81.78256271 -51.8828125 74.59375 C-62.54105513 63.33569285 -64.5020229 48.94635418 -64.1875 34.11328125 C-63.62057052 22.27626617 -58.82764052 10.77858455 -50.1875 2.5625 C-35.48542083 -9.42011944 -16.06039583 -9.58179548 0 0 Z " fill="#7B3BE9" transform="translate(583.875,120.625)"/>
<path d="M0 0 C7.42703092 5.4447731 11.93968647 13.58734193 13.8828125 22.5546875 C14.28930232 25.94780779 14.3864001 29.23514981 14.37890625 32.65234375 C14.38277344 34.41578125 14.38277344 34.41578125 14.38671875 36.21484375 C14.25390625 39.65234375 14.25390625 39.65234375 13.25390625 45.65234375 C-5.55609375 45.65234375 -24.36609375 45.65234375 -43.74609375 45.65234375 C-40.73042181 57.05704739 -40.73042181 57.05704739 -32.9296875 64.671875 C-27.33228148 67.07076329 -21.97733375 67.81024599 -16.1953125 65.73828125 C-10.70413377 63.21640657 -7.19932556 60.60197601 -3.74609375 55.65234375 C1.41278585 58.44960291 6.42733124 61.31086875 11.25390625 64.65234375 C8.31106831 73.23562107 2.10832698 77.63784083 -5.7109375 81.6640625 C-15.44704534 86.03146317 -28.30144234 86.36349716 -38.34765625 82.7421875 C-50.04070166 77.42889814 -57.57331347 69.9418295 -62.18359375 57.83984375 C-67.10496906 43.25226939 -65.89542244 27.0187224 -59.30859375 13.21484375 C-53.67360686 2.80669149 -45.23827136 -3.31187614 -33.890625 -6.69140625 C-21.49378763 -9.27857231 -10.53669554 -6.74414472 0 0 Z " fill="#7A3CE7" transform="translate(738.74609375,121.34765625)"/>
<path d="M0 0 C7.14177354 5.65865763 10.74119877 13.0468952 12.4453125 21.9375 C13.06961836 29.66902626 12.96611718 37.33347658 11.4453125 44.9375 C-7.3646875 44.9375 -26.1746875 44.9375 -45.5546875 44.9375 C-41.3070026 57.84223921 -41.3070026 57.84223921 -31.5546875 64.9375 C-27.11159294 66.65740757 -21.99999319 66.69765121 -17.46875 65.2890625 C-12.21480451 62.93384555 -8.95168654 59.51830173 -5.5546875 54.9375 C-1.66461977 56.32530795 1.41089958 58.1527227 4.7578125 60.5625 C6.08232422 61.50996094 6.08232422 61.50996094 7.43359375 62.4765625 C8.09746094 62.95867187 8.76132812 63.44078125 9.4453125 63.9375 C8.4180548 69.77596464 4.03916395 73.88556884 -0.48046875 77.4609375 C-2.45522256 78.76688691 -4.43760813 79.87896032 -6.5546875 80.9375 C-7.1734375 81.2571875 -7.7921875 81.576875 -8.4296875 81.90625 C-17.99986673 85.94366936 -30.82131126 85.32078805 -40.4921875 82.0625 C-51.92072128 76.91100182 -59.14855775 68.53341547 -63.5546875 56.9375 C-68.03853657 45.0170232 -66.94707519 27.49975647 -62.33203125 15.8515625 C-56.60496559 3.48110068 -48.76111741 -1.79931341 -36.5546875 -7.0625 C-24.12435878 -11.19012824 -10.37472179 -7.09382686 0 0 Z " fill="#7A3CE7" transform="translate(1009.5546875,122.0625)"/>
<path d="M0 0 C6.438192 5.55397679 9.46281774 14.0301199 10.44229126 22.30215454 C10.58153386 26.24814873 10.57282459 30.17506209 10.49609375 34.12109375 C10.48673879 35.55981705 10.47963542 36.99855655 10.47465515 38.43730164 C10.45579532 42.17766282 10.40688522 45.91701357 10.35113525 49.65698242 C10.29948087 53.49188578 10.27704382 57.32695652 10.25195312 61.16210938 C10.19873791 68.65285221 10.11098401 76.14256062 10.0078125 83.6328125 C3.4078125 83.6328125 -3.1921875 83.6328125 -9.9921875 83.6328125 C-10.0015332 81.91771484 -10.01087891 80.20261719 -10.02050781 78.43554688 C-10.05615152 72.74366154 -10.11002272 67.05214003 -10.17609024 61.36052704 C-10.21545653 57.91253364 -10.2476974 54.46479146 -10.26318359 51.01660156 C-10.28134412 47.04459435 -10.33134325 43.07328304 -10.3828125 39.1015625 C-10.38404114 37.87417358 -10.38526978 36.64678467 -10.38653564 35.38220215 C-10.50609911 28.34493327 -11.18242498 23.60814297 -14.9921875 17.6328125 C-19.21244912 13.66832431 -23.68357423 13.160951 -29.28515625 13.2265625 C-33.99758008 13.93376608 -37.71866815 16.21201826 -40.9921875 19.6328125 C-44.67869162 26.14174318 -44.4651064 32.43388492 -44.50390625 39.78515625 C-44.52185745 41.04042618 -44.53980865 42.29569611 -44.55830383 43.58900452 C-44.60314797 46.90490243 -44.63552527 50.22043563 -44.66174316 53.53649902 C-44.69167312 56.92876384 -44.73816023 60.32079878 -44.78320312 63.71289062 C-44.86803683 70.35277868 -44.93489272 76.99263202 -44.9921875 83.6328125 C-51.5921875 83.6328125 -58.1921875 83.6328125 -64.9921875 83.6328125 C-64.9921875 54.9228125 -64.9921875 26.2128125 -64.9921875 -3.3671875 C-58.3921875 -3.3671875 -51.7921875 -3.3671875 -44.9921875 -3.3671875 C-44.6621875 -0.0671875 -44.3321875 3.2328125 -43.9921875 6.6328125 C-43.5178125 5.9315625 -43.0434375 5.2303125 -42.5546875 4.5078125 C-31.63688398 -7.74143048 -13.49414104 -9.26068503 0 0 Z " fill="#7B3BEA" transform="translate(436.9921875,119.3671875)"/>
<path d="M0 0 C8.39259304 5.37650492 12.07184581 12.96682275 14.25 22.44140625 C14.74153001 27.50505653 14.72064253 32.53259348 14.640625 37.61328125 C14.63314288 39.03101799 14.6274593 40.44876523 14.62347412 41.86651611 C14.60837229 45.55576319 14.56922969 49.24435665 14.5246582 52.93334961 C14.48336667 56.71459111 14.46539163 60.49594065 14.4453125 64.27734375 C14.40271533 71.66569376 14.33249821 79.05337429 14.25 86.44140625 C7.65 86.44140625 1.05 86.44140625 -5.75 86.44140625 C-5.7593457 84.72630859 -5.76869141 83.01121094 -5.77832031 81.24414062 C-5.81396402 75.55225529 -5.86783522 69.86073378 -5.93390274 64.16912079 C-5.97326903 60.72112739 -6.0055099 57.27338521 -6.02099609 53.82519531 C-6.03915662 49.8531881 -6.08915575 45.88187679 -6.140625 41.91015625 C-6.14185364 40.68276733 -6.14308228 39.45537842 -6.14434814 38.1907959 C-6.26374506 31.16333004 -6.88437248 26.38071807 -10.75 20.44140625 C-15.08342451 16.60228046 -19.53120372 15.73478313 -25.25390625 15.99609375 C-30.90625407 17.00449383 -34.4373359 19.68459374 -37.82373047 24.21679688 C-40.86806628 29.69030889 -40.35329117 35.70929519 -40.359375 41.8125 C-40.37591125 43.08996597 -40.39244751 44.36743195 -40.40948486 45.68360901 C-40.44970305 49.05882643 -40.47311098 52.43329241 -40.48822021 55.80865479 C-40.50786565 59.26126282 -40.54982686 62.71359424 -40.58984375 66.16601562 C-40.66368292 72.92444839 -40.71328324 79.68267398 -40.75 86.44140625 C-47.35 86.44140625 -53.95 86.44140625 -60.75 86.44140625 C-60.75 57.73140625 -60.75 29.02140625 -60.75 -0.55859375 C-54.48 -0.55859375 -48.21 -0.55859375 -41.75 -0.55859375 C-41.75 3.07140625 -41.75 6.70140625 -41.75 10.44140625 C-41.110625 9.74015625 -40.47125 9.03890625 -39.8125 8.31640625 C-29.19610838 -2.26982517 -14.08730259 -6.6497629 0 0 Z " fill="#7B3BEA" transform="translate(829.75,116.55859375)"/>
<path d="M0 0 C29.7 0 59.4 0 90 0 C90 6.27 90 12.54 90 19 C78.78 19 67.56 19 56 19 C56 51.67 56 84.34 56 118 C49.07 118 42.14 118 35 118 C35 85.33 35 52.66 35 19 C23.45 19 11.9 19 0 19 C0 12.73 0 6.46 0 0 Z " fill="#F5F6F9" transform="translate(165,86)"/>
<path d="M0 0 C0 6.27 0 12.54 0 19 C-0.99 18.67 -1.98 18.34 -3 18 C-5.30851253 17.82889518 -7.62311501 17.73364199 -9.9375 17.6875 C-11.77634766 17.63142578 -11.77634766 17.63142578 -13.65234375 17.57421875 C-17.06283959 17.71356861 -17.06283959 17.71356861 -19.37890625 19.89453125 C-21.93567263 23.2152471 -22.22535499 25.48293273 -22.5625 29.625 C-22.706875 31.39875 -22.85125 33.1725 -23 35 C-15.74 35 -8.48 35 -1 35 C-1 40.94 -1 46.88 -1 53 C-8.26 53 -15.52 53 -23 53 C-23 75.77 -23 98.54 -23 122 C-29.6 122 -36.2 122 -43 122 C-43 99.23 -43 76.46 -43 53 C-46.96 53 -50.92 53 -55 53 C-55 47.06 -55 41.12 -55 35 C-51.04 35 -47.08 35 -43 35 C-43.05800781 34.05640625 -43.11601562 33.1128125 -43.17578125 32.140625 C-43.52242229 22.27621141 -42.79878296 13.74012204 -36.16796875 5.80859375 C-26.15554388 -3.65087669 -12.64480863 -4.21493621 0 0 Z " fill="#7B3BEB" transform="translate(514,82)"/>
<path d="M0 0 C4.92438214 3.29919653 10.15939781 7.03801061 11.8984375 12.95703125 C12.07246094 13.84455078 12.07246094 13.84455078 12.25 14.75 C10.17692768 16.28682963 8.09352513 17.80399635 6 19.3125 C5.41347656 19.75013672 4.82695313 20.18777344 4.22265625 20.63867188 C-0.16491979 23.76913343 -0.16491979 23.76913343 -3.01953125 23.67578125 C-5.73915435 22.22081359 -7.60680143 19.9454717 -9.75 17.75 C-15.36742265 13.91371136 -21.01468383 12.77675234 -27.75 13.75 C-33.35320163 16.03460945 -36.90338371 19.38522315 -39.75 24.75 C-43.05715035 32.85012187 -43.09240474 43.24251245 -41.02734375 51.71484375 C-38.90301044 56.74615948 -35.65137171 61.89901451 -30.98046875 64.87890625 C-25.40750609 67.05538729 -18.45664903 66.93584339 -13.00390625 64.546875 C-9.15175802 62.04202984 -6.3910039 59.52286271 -3.75 55.75 C0.32453229 56.37304741 3.14539701 58.51532621 6.5 60.8125 C7.57765625 61.54597656 8.6553125 62.27945313 9.765625 63.03515625 C10.58546875 63.60105469 11.4053125 64.16695313 12.25 64.75 C11.35380346 70.72004773 6.50246363 74.82220051 2.25 78.75 C-0.95298931 80.82618918 -4.18819251 82.39096376 -7.75 83.75 C-9.15958984 84.29720703 -9.15958984 84.29720703 -10.59765625 84.85546875 C-22.07084984 88.11118291 -33.73707813 85.68345319 -43.9375 80.0625 C-52.79337378 74.41306328 -58.43341071 66.31511189 -61.5 56.30078125 C-64.93104562 40.74194241 -63.61882779 24.85545502 -55.6875 10.9375 C-42.90331853 -7.72196487 -18.7618306 -11.25204126 0 0 Z " fill="#7A3BE8" transform="translate(921.75,120.25)"/>
<path d="M0 0 C6.6 0 13.2 0 20 0 C20 38.94 20 77.88 20 118 C13.4 118 6.8 118 0 118 C0 79.06 0 40.12 0 0 Z " fill="#7A3DE4" transform="translate(331,85)"/>
<path d="M0 0 C0 6.6 0 13.2 0 20 C-1.93875 20.0825 -3.8775 20.165 -5.875 20.25 C-14.8261014 20.96025044 -21.69882174 23.36999413 -28.52734375 29.2421875 C-33.63267634 35.33608582 -33.46791742 41.3763689 -33.51171875 48.9609375 C-33.52966995 50.10664215 -33.54762115 51.2523468 -33.56611633 52.43276978 C-33.62015437 56.08014279 -33.65409518 59.7273854 -33.6875 63.375 C-33.7206787 65.8528827 -33.75516887 68.33074821 -33.79101562 70.80859375 C-33.8758776 76.87230167 -33.94272053 82.93597133 -34 89 C-40.27 89 -46.54 89 -53 89 C-53 60.29 -53 31.58 -53 2 C-46.73 2 -40.46 2 -34 2 C-34 7.28 -34 12.56 -34 18 C-33.34 18 -32.68 18 -32 18 C-31.814375 17.319375 -31.62875 16.63875 -31.4375 15.9375 C-28.38104028 9.691691 -22.49989154 4.49706258 -16 2 C-10.59665355 0.63748468 -5.57910156 0 0 0 Z " fill="#7A3CE7" transform="translate(668,114)"/>
<path d="M0 0 C6.6 0 13.2 0 20 0 C20 29.04 20 58.08 20 88 C13.4 88 6.8 88 0 88 C0 58.96 0 29.92 0 0 Z " fill="#F2F3F6" transform="translate(130,115)"/>
<path d="M0 0 C4.24875 -0.0825 8.4975 -0.165 12.875 -0.25 C14.1935498 -0.28641602 15.51209961 -0.32283203 16.87060547 -0.36035156 C25.80702826 -0.44368112 32.53661198 1.02440798 40 6 C43.98176148 9.98176148 44.29454826 13.30996053 44.3125 18.875 C44.32925781 20.06867188 44.34601563 21.26234375 44.36328125 22.4921875 C43.85776529 27.37340614 42.28466232 30.67755349 38.875 34.1875 C30.63191362 39.38422837 22.46265737 39.38344808 12.9375 39.1875 C8.668125 39.125625 4.39875 39.06375 0 39 C0 26.13 0 13.26 0 0 Z " fill="#0A0E18" transform="translate(47,105)"/>
<path d="M0 0 C7.80575587 -0.02255497 15.61149407 -0.04091738 23.41727352 -0.05181217 C27.0414596 -0.05704002 30.6656223 -0.06413587 34.28979492 -0.07543945 C37.78459975 -0.08627184 41.27938204 -0.09227758 44.77420235 -0.09487724 C46.76239389 -0.09763551 48.75057631 -0.10544688 50.73875427 -0.11329651 C51.93992386 -0.11337204 53.14109344 -0.11344757 54.37866211 -0.11352539 C55.97417152 -0.11685631 55.97417152 -0.11685631 57.60191345 -0.12025452 C60 0 60 0 61 1 C61 6.94 61 12.88 61 19 C40.87 19 20.74 19 0 19 C0 12.73 0 6.46 0 0 Z " fill="#763CDD" transform="translate(253,132)"/>
<path d="M0 0 C4.01872839 3.62665733 7.02346112 7.05411715 8.5625 12.3125 C8.5625 14.2925 8.5625 16.2725 8.5625 18.3125 C-3.9775 18.3125 -16.5175 18.3125 -29.4375 18.3125 C-28.36231467 10.78620268 -26.62496176 5.73195568 -20.6484375 0.8515625 C-14.23929326 -2.86732366 -6.62206383 -3.25083133 0 0 Z " fill="#0B0B1F" transform="translate(724.4375,132.6875)"/>
<path d="M0 0 C4.57276109 1.63943042 7.82731419 4.26635066 10.5 8.3125 C12 12 12 12 12 20 C-0.21 20 -12.42 20 -25 20 C-23.98741575 11.899326 -22.87515942 8.32211075 -16.875 3.1875 C-11.51382245 -0.89165683 -6.59805294 -0.7193366 0 0 Z " fill="#090C19" transform="translate(990,131)"/>
<path d="M0 0 C4.92222219 2.76932501 7.47353051 5.91067786 9.58984375 11.11328125 C9.58984375 13.75328125 9.58984375 16.39328125 9.58984375 19.11328125 C-2.62015625 19.11328125 -14.83015625 19.11328125 -27.41015625 19.11328125 C-26.29411678 11.30100497 -24.34669612 6.30560427 -18.34765625 1.11328125 C-12.90990791 -2.37732576 -5.9280229 -2.18097439 0 0 Z " fill="#090C19" transform="translate(568.41015625,131.88671875)"/>
<path d="M0 0 C0.33 0 0.66 0 1 0 C1 6.6 1 13.2 1 20 C-4.61 19.67 -10.22 19.34 -16 19 C-16.66 20.32 -17.32 21.64 -18 23 C-18.66 23.99 -19.32 24.98 -20 26 C-20.16699232 29.12521833 -20.16699232 29.12521833 -20 32 C-19.14450562 32.03758423 -19.14450562 32.03758423 -18.27172852 32.07592773 C-15.70173843 32.19156549 -13.13214473 32.31443624 -10.5625 32.4375 C-9.66466797 32.47681641 -8.76683594 32.51613281 -7.84179688 32.55664062 C-6.98779297 32.59853516 -6.13378906 32.64042969 -5.25390625 32.68359375 C-4.46314697 32.72025146 -3.6723877 32.75690918 -2.85766602 32.79467773 C-1 33 -1 33 0 34 C0.08685603 35.56172745 0.10702219 37.12729344 0.09765625 38.69140625 C0.09515869 39.54162354 0.09266113 40.39184082 0.09008789 41.26782227 C0.08098389 42.35506592 0.07187988 43.44230957 0.0625 44.5625 C0.041875 48.006875 0.02125 51.45125 0 55 C-6.93 55 -13.86 55 -21 55 C-20.99476318 57.02439209 -20.98952637 59.04878418 -20.98413086 61.13452148 C-20.96759312 67.80812019 -20.95652804 74.48171978 -20.94818783 81.15533352 C-20.94295959 85.20325742 -20.93586301 89.25116041 -20.92456055 93.29907227 C-20.91372957 97.20235971 -20.90772272 101.10562699 -20.90512276 105.0089283 C-20.90326889 106.50133647 -20.899649 107.99374348 -20.89426994 109.48614311 C-20.88705669 111.56948139 -20.88600917 113.65273531 -20.88647461 115.73608398 C-20.884254 116.92411118 -20.88203339 118.11213837 -20.87974548 119.33616638 C-21 122 -21 122 -22 123 C-23.62257544 123.0991657 -25.24939831 123.13079777 -26.875 123.1328125 C-27.85984375 123.13410156 -28.8446875 123.13539063 -29.859375 123.13671875 C-30.89578125 123.13285156 -31.9321875 123.12898438 -33 123.125 C-34.55460937 123.13080078 -34.55460937 123.13080078 -36.140625 123.13671875 C-37.12546875 123.13542969 -38.1103125 123.13414062 -39.125 123.1328125 C-40.03507812 123.13168457 -40.94515625 123.13055664 -41.8828125 123.12939453 C-44 123 -44 123 -45 122 C-45.09417773 119.91380978 -45.11742878 117.82439523 -45.11352539 115.73608398 C-45.11367142 115.08244873 -45.11381744 114.42881348 -45.1139679 113.75537109 C-45.11326883 111.58557872 -45.10547678 109.41587121 -45.09765625 107.24609375 C-45.09579205 105.74536689 -45.09436816 104.24463943 -45.09336853 102.74391174 C-45.08954352 98.78681774 -45.0797134 94.82976022 -45.06866455 90.87268066 C-45.05845006 86.83765151 -45.05387083 82.80261647 -45.04882812 78.76757812 C-45.03809111 70.84503531 -45.0210149 62.92252219 -45 55 C-45.78246094 55.01160156 -46.56492187 55.02320313 -47.37109375 55.03515625 C-48.38300781 55.04417969 -49.39492188 55.05320313 -50.4375 55.0625 C-51.44683594 55.07410156 -52.45617187 55.08570313 -53.49609375 55.09765625 C-56 55 -56 55 -57 54 C-57.08669432 52.5112814 -57.10703494 51.018555 -57.09765625 49.52734375 C-57.09443359 48.62822266 -57.09121094 47.72910156 -57.08789062 46.80273438 C-57.07951172 45.85720703 -57.07113281 44.91167969 -57.0625 43.9375 C-57.05798828 42.98810547 -57.05347656 42.03871094 -57.04882812 41.06054688 C-57.03700128 38.70700469 -57.01906521 36.35349468 -57 34 C-52.38 34 -47.76 34 -43 34 C-43 34.33 -43 34.66 -43 35 C-46.96 35 -50.92 35 -55 35 C-55 40.94 -55 46.88 -55 53 C-51.04 53 -47.08 53 -43 53 C-43 75.77 -43 98.54 -43 122 C-36.4 122 -29.8 122 -23 122 C-23 99.23 -23 76.46 -23 53 C-15.74 53 -8.48 53 -1 53 C-1 47.06 -1 41.12 -1 35 C-8.26 35 -15.52 35 -23 35 C-23 22.44444444 -23 22.44444444 -20 19 C-16.32077133 16.54718089 -14.37740649 16.73176081 -10 16.75 C-8.14375 16.74226563 -8.14375 16.74226563 -6.25 16.734375 C-3 17 -3 17 0 19 C0 12.73 0 6.46 0 0 Z " fill="#0D072B" transform="translate(514,82)"/>
<path d="M0 0 C0.98484375 -0.00128906 1.9696875 -0.00257812 2.984375 -0.00390625 C4.02078125 -0.00003906 5.0571875 0.00382812 6.125 0.0078125 C7.67960937 0.00201172 7.67960937 0.00201172 9.265625 -0.00390625 C10.25046875 -0.00261719 11.2353125 -0.00132813 12.25 0 C13.16007812 0.00112793 14.07015625 0.00225586 15.0078125 0.00341797 C17.125 0.1328125 17.125 0.1328125 18.125 1.1328125 C18.22304865 2.68669413 18.25131862 4.24503014 18.25198364 5.80200195 C18.25480347 6.81162994 18.25762329 7.82125793 18.26052856 8.86148071 C18.25850433 9.97840302 18.2564801 11.09532532 18.25439453 12.24609375 C18.25614685 13.41506195 18.25789917 14.58403015 18.25970459 15.78842163 C18.26336264 19.00321689 18.26248976 22.21797128 18.2593255 25.43276596 C18.25680142 28.79022053 18.25913958 32.14767228 18.26071167 35.50512695 C18.26253322 41.14437351 18.26012743 46.78360699 18.25537109 52.42285156 C18.2499285 58.9513151 18.25169116 65.47974741 18.2571975 72.00821018 C18.26172904 77.60395609 18.26237898 83.19969257 18.25975883 88.79543972 C18.25819628 92.14167734 18.25800169 95.48790027 18.26129532 98.83413696 C18.26382014 102.56262355 18.25998364 106.29104923 18.25439453 110.01953125 C18.25641876 111.13645355 18.25844299 112.25337585 18.26052856 113.40414429 C18.25629883 114.91858627 18.25629883 114.91858627 18.25198364 116.46362305 C18.25160662 117.3463237 18.25122959 118.22902435 18.25084114 119.13847351 C18.125 121.1328125 18.125 121.1328125 17.125 122.1328125 C15.50242456 122.2319782 13.87560169 122.26361027 12.25 122.265625 C11.26515625 122.26691406 10.2803125 122.26820313 9.265625 122.26953125 C8.22921875 122.26566406 7.1928125 122.26179688 6.125 122.2578125 C4.57039063 122.26361328 4.57039063 122.26361328 2.984375 122.26953125 C1.99953125 122.26824219 1.0146875 122.26695312 0 122.265625 C-0.91007812 122.26449707 -1.82015625 122.26336914 -2.7578125 122.26220703 C-4.875 122.1328125 -4.875 122.1328125 -5.875 121.1328125 C-5.97304865 119.57893087 -6.00131862 118.02059486 -6.00198364 116.46362305 C-6.00480347 115.45399506 -6.00762329 114.44436707 -6.01052856 113.40414429 C-6.00850433 112.28722198 -6.0064801 111.17029968 -6.00439453 110.01953125 C-6.00614685 108.85056305 -6.00789917 107.68159485 -6.00970459 106.47720337 C-6.01336264 103.26240811 -6.01248976 100.04765372 -6.0093255 96.83285904 C-6.00680142 93.47540447 -6.00913958 90.11795272 -6.01071167 86.76049805 C-6.01253322 81.12125149 -6.01012743 75.48201801 -6.00537109 69.84277344 C-5.9999285 63.3143099 -6.00169116 56.78587759 -6.0071975 50.25741482 C-6.01172904 44.66166891 -6.01237898 39.06593243 -6.00975883 33.47018528 C-6.00819628 30.12394766 -6.00800169 26.77772473 -6.01129532 23.43148804 C-6.01382014 19.70300145 -6.00998364 15.97457577 -6.00439453 12.24609375 C-6.00641876 11.12917145 -6.00844299 10.01224915 -6.01052856 8.86148071 C-6.00770874 7.85185272 -6.00488892 6.84222473 -6.00198364 5.80200195 C-6.00160662 4.9193013 -6.00122959 4.03660065 -6.00084114 3.12715149 C-5.75261238 -0.80679487 -3.38688572 0.00419763 0 0 Z M-3.875 2.1328125 C-3.875 41.0728125 -3.875 80.0128125 -3.875 120.1328125 C2.725 120.1328125 9.325 120.1328125 16.125 120.1328125 C16.125 81.1928125 16.125 42.2528125 16.125 2.1328125 C9.525 2.1328125 2.925 2.1328125 -3.875 2.1328125 Z " fill="#150542" transform="translate(334.875,82.8671875)"/>
<path d="M0 0 C3.15689734 1.60714774 5.19415756 2.97438234 7.375 5.75 C8.83243811 10.99677719 8.72165056 14.65623688 6.1875 19.375 C3.80469263 22.23436884 2.21855733 23.82080039 -1.5234375 24.37109375 C-9.27422176 24.55159147 -9.27422176 24.55159147 -13.125 21.625 C-16.24160906 17.26174732 -16.52774546 14.09603249 -16.46484375 8.77734375 C-15.94366573 5.66341457 -15.31585156 4.48258683 -13.0625 2.3125 C-8.87934773 -0.60893225 -4.94181216 -1.06024334 0 0 Z " fill="#F3F4F7" transform="translate(144,78)"/>
<path d="M0 0 C6.6 0 13.2 0 20 0 C20 3.63 20 7.26 20 11 C19.34 10.67 18.68 10.34 18 10 C18 7.03 18 4.06 18 1 C12.72 1 7.44 1 2 1 C2 28.72 2 56.44 2 85 C6.95 84.67 11.9 84.34 17 84 C17.01981934 82.49695313 17.03963867 80.99390625 17.06005859 79.4453125 C17.13636962 73.84667761 17.22504757 68.24829399 17.31738281 62.64990234 C17.35556737 60.23100765 17.39043826 57.81205821 17.421875 55.39306641 C17.46775422 51.90767914 17.52571129 48.42266534 17.5859375 44.9375 C17.59748871 43.86322754 17.60903992 42.78895508 17.62094116 41.68212891 C17.91769654 26.44156709 17.91769654 26.44156709 23.4375 20.625 C24.33275391 19.65433594 24.33275391 19.65433594 25.24609375 18.6640625 C29.35146512 14.76898855 32.67889525 14.6636998 38.0625 14.6875 C38.79533203 14.67138672 39.52816406 14.65527344 40.28320312 14.63867188 C42.41015625 14.63671875 42.41015625 14.63671875 46 15 C46.66 15.99 47.32 16.98 48 18 C47.38125 17.835 46.7625 17.67 46.125 17.5 C38.08118183 16.21298909 32.8193543 16.37687525 25.91015625 21.00390625 C19.92314838 27.26026826 20.53126717 35.00795161 20.48828125 43.15234375 C20.47033005 44.40761368 20.45237885 45.66288361 20.43388367 46.95619202 C20.38903953 50.27208993 20.35666223 53.58762313 20.33044434 56.90368652 C20.30051438 60.29595134 20.25402727 63.68798628 20.20898438 67.08007812 C20.12415067 73.71996618 20.05729478 80.35981952 20 87 C13.4 87 6.8 87 0 87 C0 58.29 0 29.58 0 0 Z " fill="#6B3DC0" transform="translate(372,116)"/>
<path d="M0 0 C6.27 0 12.54 0 19 0 C19 3.63 19 7.26 19 11 C19.680625 10.278125 20.36125 9.55625 21.0625 8.8125 C24.11293077 5.76206923 27.40071301 3.37688764 31 1 C31.66 1 32.32 1 33 1 C33 1.66 33 2.32 33 3 C32.01 3 31.02 3 30 3 C29.690625 3.8353125 29.690625 3.8353125 29.375 4.6875 C27.44314106 7.93653549 25.05020195 9.8038546 22 12 C20.68 12 19.36 12 18 12 C18 8.37 18 4.74 18 1 C12.72 1 7.44 1 2 1 C2 28.72 2 56.44 2 85 C7.28 85 12.56 85 18 85 C17.98952637 83.35483398 17.97905273 81.70966797 17.96826172 80.01464844 C17.93208959 73.91685152 17.90910956 67.81906411 17.89013672 61.72119141 C17.88007281 59.08087571 17.86642048 56.44057117 17.84912109 53.80029297 C17.82489029 50.00745897 17.81352077 46.21477221 17.8046875 42.421875 C17.79436493 41.23946228 17.78404236 40.05704956 17.77340698 38.83880615 C17.77325592 37.73796692 17.77310486 36.63712769 17.77294922 35.50292969 C17.768508 34.53474304 17.76406677 33.5665564 17.75949097 32.56903076 C18.0084085 29.91018338 18.64441446 28.27725613 20 26 C21.0611791 29.18353731 21.08692246 31.32541628 21.02172852 34.66479492 C20.99158409 36.40626045 20.99158409 36.40626045 20.96083069 38.1829071 C20.92027809 40.06270012 20.92027809 40.06270012 20.87890625 41.98046875 C20.85529526 43.26359451 20.83168427 44.54672028 20.80735779 45.86872864 C20.74458633 49.27678463 20.67550022 52.68468448 20.60510254 56.09259033 C20.5343563 59.5714203 20.46957701 63.0503608 20.40429688 66.52929688 C20.27537402 73.35298667 20.13922907 80.17651279 20 87 C13.4 87 6.8 87 0 87 C0 58.29 0 29.58 0 0 Z " fill="#6C41BE" transform="translate(769,116)"/>
<path d="M0 0 C5.80160357 5.20220539 7.60565448 11.91561656 8.34191895 19.54138184 C8.45972466 23.42256095 8.45175308 27.29056702 8.390625 31.171875 C8.38314288 32.58961174 8.3774593 34.00735898 8.37347412 35.42510986 C8.35837229 39.11435694 8.31922969 42.8029504 8.2746582 46.49194336 C8.23336667 50.27318486 8.21539163 54.0545344 8.1953125 57.8359375 C8.15271533 65.22428751 8.08249821 72.61196804 8 80 C1.4 80 -5.2 80 -12 80 C-12.0093457 78.28490234 -12.01869141 76.56980469 -12.02832031 74.80273438 C-12.06396402 69.11084904 -12.11783522 63.41932753 -12.18390274 57.72771454 C-12.22326903 54.27972114 -12.2555099 50.83197896 -12.27099609 47.38378906 C-12.28915662 43.41178185 -12.33915575 39.44047054 -12.390625 35.46875 C-12.39185364 34.24136108 -12.39308228 33.01397217 -12.39434814 31.74938965 C-12.51374506 24.72192379 -13.13437248 19.93931182 -17 14 C-21.46304103 10.0493255 -25.76725815 9.49419651 -31.62109375 9.7265625 C-34.60252164 10.06925536 -37.23758661 10.83687857 -40 12 C-40 11.34 -40 10.68 -40 10 C-34.77896122 6.51930748 -27.11888082 6.8662306 -21 8 C-16.40121125 10.43273973 -13.84315391 13.73526914 -11 18 C-10.06785145 21.55775026 -9.85370037 24.94861986 -9.79467773 28.61645508 C-9.77473251 29.71721878 -9.75478729 30.81798248 -9.73423767 31.95210266 C-9.71752518 33.1293541 -9.70081268 34.30660553 -9.68359375 35.51953125 C-9.66281265 36.73323898 -9.64203156 37.94694672 -9.62062073 39.19743347 C-9.55531084 43.06906551 -9.49632637 46.94076455 -9.4375 50.8125 C-9.39429715 53.43946002 -9.35068229 56.06641329 -9.30664062 58.69335938 C-9.19964838 65.12883782 -9.0983285 71.56438358 -9 78 C-4.05 78 0.9 78 6 78 C5.9139406 70.77520881 5.81991138 63.55062176 5.71247292 56.32611465 C5.66287137 52.97020106 5.61753559 49.61435858 5.578125 46.25830078 C5.53207245 42.38556893 5.47414615 38.51316162 5.4140625 34.640625 C5.40251129 33.455755 5.39096008 32.27088501 5.37905884 31.05010986 C5.18971875 20.18431094 3.74534207 10.21456928 0 0 Z " fill="#6A3DBF" transform="translate(836,123)"/>
<path d="M0 0 C1.07121094 -0.00708984 2.14242187 -0.01417969 3.24609375 -0.02148438 C8.7270993 0.02288242 12.32814064 0.06878882 16.875 3.4375 C16.875 4.0975 16.875 4.7575 16.875 5.4375 C16.31554687 5.2209375 15.75609375 5.004375 15.1796875 4.78125 C6.01025532 1.59700988 -3.98758399 0.74020769 -13.125 4.4375 C-17.93149806 7.15962673 -22.44885198 10.28185442 -26.125 14.4375 C-26.125 10.8075 -26.125 7.1775 -26.125 3.4375 C-32.725 3.4375 -39.325 3.4375 -46.125 3.4375 C-46.125 32.1475 -46.125 60.8575 -46.125 90.4375 C-39.525 90.4375 -32.925 90.4375 -26.125 90.4375 C-26.14594727 88.75269531 -26.16689453 87.06789063 -26.18847656 85.33203125 C-26.25320412 79.7402166 -26.29904127 74.14845607 -26.33224869 68.55636597 C-26.35304671 65.16871042 -26.38121887 61.78146344 -26.42675781 58.39404297 C-26.47544693 54.49175354 -26.49800929 50.59003848 -26.515625 46.6875 C-26.54659271 44.87922729 -26.54659271 44.87922729 -26.57818604 43.03442383 C-26.58003631 36.04926662 -26.07754231 31.29260436 -22.125 25.4375 C-19.98590088 24.23144531 -19.98590088 24.23144531 -18.125 23.4375 C-18.65471405 24.22957855 -18.65471405 24.22957855 -19.19512939 25.03765869 C-22.96561021 31.13552721 -23.85144275 35.82884529 -23.796875 42.921875 C-23.81599945 44.38805267 -23.81599945 44.38805267 -23.83551025 45.8838501 C-23.87155929 48.98536582 -23.87451642 52.08579447 -23.875 55.1875 C-23.90380991 59.26570225 -23.94462995 63.34376672 -23.984375 67.421875 C-23.99174683 68.39201538 -23.99911865 69.36215576 -24.00671387 70.36169434 C-24.1946492 90.5071492 -24.1946492 90.5071492 -26.125 92.4375 C-27.60152664 92.53630797 -29.08267236 92.56829245 -30.5625 92.5703125 C-31.90441406 92.57224609 -31.90441406 92.57224609 -33.2734375 92.57421875 C-34.68496094 92.56841797 -34.68496094 92.56841797 -36.125 92.5625 C-37.53652344 92.56830078 -37.53652344 92.56830078 -38.9765625 92.57421875 C-39.87117188 92.57292969 -40.76578125 92.57164062 -41.6875 92.5703125 C-42.51378906 92.56918457 -43.34007812 92.56805664 -44.19140625 92.56689453 C-46.125 92.4375 -46.125 92.4375 -47.125 91.4375 C-47.22017803 88.66811034 -47.25054265 85.92372841 -47.23852539 83.15405273 C-47.23867142 82.28583893 -47.23881744 81.41762512 -47.2389679 80.52310181 C-47.23826846 77.63907414 -47.23047463 74.7551102 -47.22265625 71.87109375 C-47.22079218 69.87712133 -47.21936823 67.88314845 -47.21836853 65.88917542 C-47.21454248 60.63004298 -47.20471145 55.37093797 -47.19366455 50.11181641 C-47.1834523 44.74967825 -47.17887131 39.38753569 -47.17382812 34.02539062 C-47.16308926 23.49607973 -47.14549176 12.96679643 -47.125 2.4375 C-39.865 2.4375 -32.605 2.4375 -25.125 2.4375 C-24.795 4.0875 -24.465 5.7375 -24.125 7.4375 C-22.475 7.1075 -20.825 6.7775 -19.125 6.4375 C-19.125 5.7775 -19.125 5.1175 -19.125 4.4375 C-12.85585526 -0.07235484 -7.57834915 -0.14238111 0 0 Z " fill="#100437" transform="translate(418.125,112.5625)"/>
<path d="M0 0 C1.01150678 3.14690998 0.84165238 4.85222009 0 8 C-0.22646187 11.59403382 -0.37996046 15.18690311 -0.5234375 18.78515625 C-1 22 -1 22 -2.24609375 23.921875 C-4.53037035 25.3260183 -6.0255637 25.30323636 -8.6875 25.1875 C-10.110625 25.125625 -11.53375 25.06375 -13 25 C-13 29.62 -13 34.24 -13 39 C-9.19140625 38.95117188 -9.19140625 38.95117188 -5.3828125 38.90234375 C-3 39 -3 39 -1 40 C-1 62.44 -1 84.88 -1 108 C4.61 108 10.22 108 16 108 C16 85.89 16 63.78 16 41 C16.33 41 16.66 41 17 41 C17 63.77 17 86.54 17 110 C10.4 110 3.8 110 -3 110 C-3 87.23 -3 64.46 -3 41 C-6.96 41 -10.92 41 -15 41 C-15 35.06 -15 29.12 -15 23 C-11.04 23 -7.08 23 -3 23 C-3.05220703 21.515 -3.05220703 21.515 -3.10546875 20 C-3.28134511 12.76067233 -3.25255905 6.64064138 0 0 Z " fill="#683EB8" transform="translate(474,94)"/>
<path d="M0 0 C0.66 0 1.32 0 2 0 C2 28.71 2 57.42 2 87 C8.6 87 15.2 87 22 87 C21.97905273 85.27966553 21.95810547 83.55933105 21.93652344 81.78686523 C21.87185017 76.08328308 21.82598312 70.37975384 21.79275131 64.67590237 C21.77193496 61.21984185 21.74372847 57.76418046 21.69824219 54.30834961 C21.64620109 50.32931403 21.62700541 46.35043634 21.609375 42.37109375 C21.58872986 41.13854355 21.56808472 39.90599335 21.54681396 38.63609314 C21.54474375 30.68293201 22.32357384 26.07032896 27.75 20.0625 C28.1625 19.711875 28.575 19.36125 29 19 C29.66 19.33 30.32 19.66 31 20 C30.38125 20.515625 29.7625 21.03125 29.125 21.5625 C23.73925711 27.7402639 24.69077968 36.12563376 24.65625 43.86328125 C24.6416272 45.09161179 24.62700439 46.31994232 24.61193848 47.585495 C24.54977085 52.82618026 24.50989415 58.06697901 24.46826172 63.30786133 C24.43465349 67.13896325 24.38953456 70.96980871 24.34375 74.80078125 C24.3384729 75.99343094 24.3331958 77.18608063 24.32775879 78.41487122 C24.31434448 79.51328842 24.30093018 80.61170563 24.28710938 81.7434082 C24.27981812 82.71268753 24.27252686 83.68196686 24.26501465 84.68061829 C24 87 24 87 22 89 C19.86108398 89.24291992 19.86108398 89.24291992 17.24609375 89.23046875 C15.84133789 89.22756836 15.84133789 89.22756836 14.40820312 89.22460938 C13.42787109 89.21236328 12.44753906 89.20011719 11.4375 89.1875 C10.45330078 89.18685547 9.46910156 89.18621094 8.45507812 89.18554688 C1.14017532 89.14017532 1.14017532 89.14017532 0 88 C-0.09516211 85.2611158 -0.12554594 82.54752059 -0.11352539 79.80834961 C-0.11367142 78.94988937 -0.11381744 78.09142914 -0.1139679 77.20695496 C-0.11326847 74.35539262 -0.1054747 71.50389475 -0.09765625 68.65234375 C-0.09579218 66.68079158 -0.09436822 64.70923895 -0.09336853 62.73768616 C-0.08954251 57.53773733 -0.07971152 52.33781625 -0.06866455 47.13787842 C-0.05845222 41.83606339 -0.05387129 36.5342439 -0.04882812 31.23242188 C-0.03808933 20.82160237 -0.02101191 10.41080349 0 0 Z " fill="#100437" transform="translate(767,116)"/>
<path d="M0 0 C2.87893701 4.31840552 3.12336442 7.22059682 3.11352539 12.30737305 C3.11344986 13.60849533 3.11337433 14.90961761 3.11329651 16.25016785 C3.10818985 17.6706852 3.10297385 19.09120217 3.09765625 20.51171875 C3.09579091 21.96474662 3.09436756 23.41777511 3.09336853 24.87080383 C3.08955246 28.69306172 3.07972993 32.51528155 3.06866455 36.33752441 C3.05843087 40.23868291 3.05386671 44.13984757 3.04882812 48.04101562 C3.03810685 55.69402977 3.02051741 63.3470047 3 71 C-3.6 71 -10.2 71 -17 71 C-17.01401855 68.43520874 -17.01401855 68.43520874 -17.02832031 65.81860352 C-17.06399039 60.13869934 -17.11787799 54.45915861 -17.18390274 48.77952671 C-17.22323843 45.33940927 -17.2554941 41.89954246 -17.27099609 38.45922852 C-17.28918241 34.49462747 -17.3391947 30.53072058 -17.390625 26.56640625 C-17.39185364 25.34417862 -17.39308228 24.12195099 -17.39434814 22.86268616 C-17.51601665 15.70198505 -18.42006607 10.2566929 -22 4 C-20.68 4.33 -19.36 4.66 -18 5 C-18 6.32 -18 7.64 -18 9 C-17.34 9 -16.68 9 -16 9 C-14.68142452 11.63715096 -14.88008296 13.5983264 -14.88647461 16.55126953 C-14.88655014 17.71232208 -14.88662567 18.87337463 -14.88670349 20.0696106 C-14.89186478 21.32796722 -14.89702606 22.58632385 -14.90234375 23.8828125 C-14.9037587 25.16735321 -14.90517365 26.45189392 -14.90663147 27.77536011 C-14.91045089 31.19156842 -14.92027627 34.60773426 -14.93133545 38.02392578 C-14.94156193 41.50943426 -14.94613174 44.9949496 -14.95117188 48.48046875 C-14.96189905 55.32033171 -14.97949121 62.16015945 -15 69 C-9.72 69 -4.44 69 1 69 C0.67 46.23 0.34 23.46 0 0 Z " fill="#683EB8" transform="translate(444,132)"/>
<path d="M0 0 C0.33 0 0.66 0 1 0 C1 6.6 1 13.2 1 20 C-4.61 19.67 -10.22 19.34 -16 19 C-16.66 20.32 -17.32 21.64 -18 23 C-18.66 23.99 -19.32 24.98 -20 26 C-20.16699232 29.12521833 -20.16699232 29.12521833 -20 32 C-19.14450562 32.03758423 -19.14450562 32.03758423 -18.27172852 32.07592773 C-15.70173843 32.19156549 -13.13214473 32.31443624 -10.5625 32.4375 C-9.66466797 32.47681641 -8.76683594 32.51613281 -7.84179688 32.55664062 C-6.98779297 32.59853516 -6.13378906 32.64042969 -5.25390625 32.68359375 C-4.46314697 32.72025146 -3.6723877 32.75690918 -2.85766602 32.79467773 C-1 33 -1 33 0 34 C0.08685603 35.56172745 0.10702219 37.12729344 0.09765625 38.69140625 C0.09515869 39.54162354 0.09266113 40.39184082 0.09008789 41.26782227 C0.08098389 42.35506592 0.07187988 43.44230957 0.0625 44.5625 C0.041875 48.006875 0.02125 51.45125 0 55 C-6.93 55 -13.86 55 -21 55 C-21.33 76.78 -21.66 98.56 -22 121 C-22.33 121 -22.66 121 -23 121 C-23 98.56 -23 76.12 -23 53 C-15.74 53 -8.48 53 -1 53 C-1 47.06 -1 41.12 -1 35 C-8.26 35 -15.52 35 -23 35 C-23 22.44444444 -23 22.44444444 -20 19 C-16.32077133 16.54718089 -14.37740649 16.73176081 -10 16.75 C-8.14375 16.74226563 -8.14375 16.74226563 -6.25 16.734375 C-3 17 -3 17 0 19 C0 12.73 0 6.46 0 0 Z " fill="#130143" transform="translate(514,82)"/>
<path d="M0 0 C1.32 0.66 2.64 1.32 4 2 C4 3.65 4 5.3 4 7 C4.66 7 5.32 7 6 7 C7.51309235 11.73600534 8.2517443 15.71290693 8.25878906 20.72973633 C8.26509338 22.0241011 8.27139771 23.31846588 8.27789307 24.65205383 C8.27431475 26.04538104 8.27021315 27.438707 8.265625 28.83203125 C8.26697373 30.27455206 8.268916 31.71707242 8.27142334 33.15959167 C8.2743601 36.16950853 8.27012068 39.17930607 8.26074219 42.18920898 C8.24929692 46.05076132 8.25594802 49.91203717 8.26788712 53.7735796 C8.27510124 56.74606933 8.27282077 59.71849304 8.26763153 62.69098473 C8.26629644 64.1155774 8.26793785 65.54017604 8.27259064 66.96476173 C8.27765381 68.94891881 8.26857212 70.93309691 8.25878906 72.91723633 C8.25640228 74.61098137 8.25640228 74.61098137 8.25396729 76.33894348 C8 79 8 79 6 81 C4.06054688 81.24291992 4.06054688 81.24291992 1.71875 81.23046875 C0.45611328 81.22756836 0.45611328 81.22756836 -0.83203125 81.22460938 C-1.71246094 81.21236328 -2.59289062 81.20011719 -3.5 81.1875 C-4.38042969 81.18685547 -5.26085937 81.18621094 -6.16796875 81.18554688 C-12.71919885 81.14040057 -12.71919885 81.14040057 -15 80 C-15.33 59.54 -15.66 39.08 -16 18 C-13.71541501 21.42687748 -13.75548548 22.63940311 -13.77294922 26.66479492 C-13.77310028 27.82577194 -13.77325134 28.98674896 -13.77340698 30.1829071 C-13.78372955 31.43610245 -13.79405212 32.68929779 -13.8046875 33.98046875 C-13.8075174 35.26359451 -13.81034729 36.54672028 -13.81326294 37.86872864 C-13.82089203 41.27676202 -13.84053413 44.68462441 -13.8626709 48.09259033 C-13.88314503 51.57146898 -13.892268 55.05037532 -13.90234375 58.52929688 C-13.92378084 65.35294183 -13.95895701 72.1764451 -14 79 C-7.4 79 -0.8 79 6 79 C5.98215417 70.76642478 5.94296303 62.53375281 5.86790943 54.30052757 C5.83386234 50.47599074 5.80856469 46.65184388 5.80444336 42.82714844 C5.8001118 39.12441907 5.77125647 35.42256604 5.72656822 31.72011185 C5.71374604 30.31944543 5.70923019 28.91867328 5.71384621 27.51795578 C5.73974762 17.25555557 3.97555226 9.35243122 0 0 Z " fill="#100338" transform="translate(441,124)"/>
<path d="M0 0 C4.57276109 1.63943042 7.82731419 4.26635066 10.5 8.3125 C12 12 12 12 12 20 C-0.21 20 -12.42 20 -25 20 C-23.98741575 11.899326 -22.87515942 8.32211075 -16.875 3.1875 C-11.51382245 -0.89165683 -6.59805294 -0.7193366 0 0 Z M-21 11 C-21.33 13.31 -21.66 15.62 -22 18 C-11.77 18 -1.54 18 9 18 C10.11498117 13.54007534 9.75592147 12.12641545 8 8 C4.12295535 3.47304613 -1.67154989 1.88617313 -7.4375 1.25 C-13.59750217 1.4535479 -17.77238593 6.10814743 -21 11 Z " fill="#1E0A4F" transform="translate(990,131)"/>
<path d="M0 0 C3.89006773 1.38780795 6.96558708 3.2152227 10.3125 5.625 C11.19550781 6.25664062 12.07851563 6.88828125 12.98828125 7.5390625 C13.65214844 8.02117187 14.31601562 8.50328125 15 9 C13.9727423 14.83846464 9.59385145 18.94806884 5.07421875 22.5234375 C3.09946494 23.82938691 1.11707937 24.94146032 -1 26 C-1.61875 26.3196875 -2.2375 26.639375 -2.875 26.96875 C-12.7438573 31.13217417 -25.49420159 30.36329423 -35.375 26.75 C-39.41074094 25.06062007 -42.06784891 23.25176946 -45 20 C-43.35 20 -41.7 20 -40 20 C-40 20.66 -40 21.32 -40 22 C-26.9045413 26.72149191 -14.31440964 27.63524576 -1 23 C2.6784855 21.177977 2.6784855 21.177977 5 18 C5.99 17.67 6.98 17.34 8 17 C10.7667759 14.02827774 11 13.25809375 11 9 C9.40333011 7.38505357 9.40333011 7.38505357 7.25 6.1875 C6.55390625 5.74792969 5.8578125 5.30835938 5.140625 4.85546875 C2.5715433 3.82877369 1.5338768 3.96533364 -1 5 C-3.22977996 6.97901574 -3.22977996 6.97901574 -5 9 C-5.66 8.67 -6.32 8.34 -7 8 C-4.69 5.36 -2.38 2.72 0 0 Z " fill="#6F40C5" transform="translate(1004,177)"/>
<path d="M0 0 C7.26 0 14.52 0 22 0 C22 5.94 22 11.88 22 18 C14.41 18 6.82 18 -1 18 C-1 40.11 -1 62.22 -1 85 C-6.61 85 -12.22 85 -18 85 C-17.505 84.01 -17.505 84.01 -17 83 C-12.05 83.33 -7.1 83.66 -2 84 C-2.00523682 81.97560791 -2.01047363 79.95121582 -2.01586914 77.86547852 C-2.03240688 71.19187981 -2.04347196 64.51828022 -2.05181217 57.84466648 C-2.05704041 53.79674258 -2.06413699 49.74883959 -2.07543945 45.70092773 C-2.08627043 41.79764029 -2.09227728 37.89437301 -2.09487724 33.9910717 C-2.09673111 32.49866353 -2.100351 31.00625652 -2.10573006 29.51385689 C-2.11294331 27.43051861 -2.11399083 25.34726469 -2.11352539 23.26391602 C-2.115746 22.07588882 -2.11796661 20.88786163 -2.12025452 19.66383362 C-2 17 -2 17 -1 16 C0.56172745 15.91314397 2.12729344 15.89297781 3.69140625 15.90234375 C4.63564453 15.90556641 5.57988281 15.90878906 6.55273438 15.91210938 C7.54595703 15.92048828 8.53917969 15.92886719 9.5625 15.9375 C10.55958984 15.94201172 11.55667969 15.94652344 12.58398438 15.95117188 C15.05601487 15.96299977 17.52801472 15.98093585 20 16 C20 11.05 20 6.1 20 1 C13.4 1 6.8 1 0 1 C0 0.67 0 0.34 0 0 Z " fill="#7544D0" transform="translate(491,117)"/>
<path d="M0 0 C2.04473096 4.08946193 2.27089695 5.8666741 2.25 10.3125 C2.25773438 11.94638672 2.25773438 11.94638672 2.265625 13.61328125 C2 17 2 17 0 24 C-18.48 24 -36.96 24 -56 24 C-54.27124299 32.02538963 -54.27124299 32.02538963 -51 39 C-51.99 39 -52.98 39 -54 39 C-54 38.01 -54 37.02 -54 36 C-54.66 36 -55.32 36 -56 36 C-57.44209192 31.49346274 -58.34223148 27.79124078 -58 23 C-57 22 -57 22 -54.75376892 21.87974548 C-53.76115555 21.88196609 -52.76854218 21.88418671 -51.74584961 21.88647461 C-50.62476303 21.88655014 -49.50367645 21.88662567 -48.34861755 21.88670349 C-46.51896202 21.89444542 -46.51896202 21.89444542 -44.65234375 21.90234375 C-42.7899984 21.90446617 -42.7899984 21.90446617 -40.89002991 21.90663147 C-37.58394509 21.91129409 -34.27792854 21.92028503 -30.97186279 21.93133545 C-27.6003885 21.94155173 -24.22890717 21.94612955 -20.85742188 21.95117188 C-14.23825982 21.96222605 -7.61913929 21.9795034 -1 22 C-0.67 14.74 -0.34 7.48 0 0 Z " fill="#6E42C2" transform="translate(597,143)"/>
<path d="M0 0 C4.92222219 2.76932501 7.47353051 5.91067786 9.58984375 11.11328125 C9.58984375 13.75328125 9.58984375 16.39328125 9.58984375 19.11328125 C-2.62015625 19.11328125 -14.83015625 19.11328125 -27.41015625 19.11328125 C-26.29411678 11.30100497 -24.34669612 6.30560427 -18.34765625 1.11328125 C-12.90990791 -2.37732576 -5.9280229 -2.18097439 0 0 Z M-19.41015625 5.11328125 C-20.40015625 5.60828125 -20.40015625 5.60828125 -21.41015625 6.11328125 C-21.41015625 6.77328125 -21.41015625 7.43328125 -21.41015625 8.11328125 C-22.07015625 8.11328125 -22.73015625 8.11328125 -23.41015625 8.11328125 C-23.74015625 11.08328125 -24.07015625 14.05328125 -24.41015625 17.11328125 C-20.01359452 17.13793629 -15.61706905 17.15611967 -11.22045898 17.16821289 C-9.72370707 17.17325246 -8.22696009 17.18008412 -6.73022461 17.1887207 C-4.58315818 17.20080284 -2.43615663 17.20651316 -0.2890625 17.2109375 C1.00443115 17.21617432 2.2979248 17.22141113 3.63061523 17.22680664 C6.47636779 17.45325057 6.47636779 17.45325057 7.58984375 16.11328125 C7.39239035 10.14249864 7.39239035 10.14249864 4.21484375 5.23828125 C-0.27833042 1.60094978 -2.58302809 0.79877053 -8.34765625 0.73828125 C-9.57355469 0.70992187 -10.79945313 0.6815625 -12.0625 0.65234375 C-15.96815439 1.1901118 -16.95553192 2.14039517 -19.41015625 5.11328125 Z " fill="#1B084A" transform="translate(568.41015625,131.88671875)"/>
<path d="M0 0 C0.68118896 -0.00563965 1.36237793 -0.0112793 2.06420898 -0.01708984 C6.61805293 0.04830551 9.37723118 0.81324373 13.875 2.3125 C13.875 8.5825 13.875 14.8525 13.875 21.3125 C12.885 20.9825 11.895 20.6525 10.875 20.3125 C8.54324086 20.21721177 6.20870026 20.18263812 3.875 20.1875 C2.6375 20.18492188 1.4 20.18234375 0.125 20.1796875 C-3.13730773 20.16258698 -3.13730773 20.16258698 -6.125 21.3125 C-5.795 20.3225 -5.465 19.3325 -5.125 18.3125 C-1.80955701 17.20735234 1.07910111 16.99142369 4.5625 16.75 C6.33173828 16.62431641 6.33173828 16.62431641 8.13671875 16.49609375 C9.04035156 16.43550781 9.94398438 16.37492187 10.875 16.3125 C10.875 12.3525 10.875 8.3925 10.875 4.3125 C3.07350852 2.98458656 -5.70566089 1.93209106 -13.125 5.3125 C-15.31807257 6.97634848 -17.29539138 8.73486515 -19.265625 10.65625 C-21.12864547 12.31574722 -22.85369546 13.30749799 -25.125 14.3125 C-23.72537547 9.02502956 -20.4639583 6.3263872 -16.125 3.3125 C-10.77005498 0.3916209 -6.04300471 0.04807482 0 0 Z " fill="#6F3FC8" transform="translate(500.125,79.6875)"/>
<path d="M0 0 C1.32 0.66 2.64 1.32 4 2 C4 3.32 4 4.64 4 6 C4.66 6 5.32 6 6 6 C7.886108 9.99740899 8.24632838 13.17598925 8.23046875 17.578125 C8.22853516 18.82078125 8.22660156 20.0634375 8.22460938 21.34375 C8.20624023 23.27734375 8.20624023 23.27734375 8.1875 25.25 C8.18685547 26.55453125 8.18621094 27.8590625 8.18554688 29.203125 C8.14028159 38.85971841 8.14028159 38.85971841 7 40 C5.31290653 40.12299166 3.62079097 40.17785258 1.92944336 40.20532227 C0.84839828 40.22526749 -0.23264679 40.24521271 -1.34645081 40.26576233 C-3.110485 40.29083107 -3.110485 40.29083107 -4.91015625 40.31640625 C-6.10732773 40.33718735 -7.30449921 40.35796844 -8.53794861 40.37937927 C-12.37940487 40.44500279 -16.22093201 40.50381903 -20.0625 40.5625 C-22.65951267 40.60567305 -25.25651806 40.64928693 -27.85351562 40.69335938 C-34.23560117 40.80069716 -40.61775793 40.90243931 -47 41 C-46.68622832 42.43909326 -46.37080533 43.87782654 -46.0546875 45.31640625 C-45.87921387 46.11763916 -45.70374023 46.91887207 -45.52294922 47.74438477 C-44.91856379 50.35125544 -44.28548154 52.64328384 -43 55 C-40.98264795 56.34410262 -40.98264795 56.34410262 -39 57 C-42 57 -42 57 -44.4375 55.125 C-48.40306869 50.94312757 -51 44.73799355 -51 39 C-32.19 39 -13.38 39 6 39 C6.41748865 17.9340671 6.41748865 17.9340671 0 0 Z " fill="#180648" transform="translate(1015,128)"/>
<path d="M0 0 C3 3 3 3 3.14453125 6.765625 C3.05020639 8.26153755 2.93887699 9.75645375 2.8125 11.25 C2.74579102 12.35794922 2.74579102 12.35794922 2.67773438 13.48828125 C2.32611672 18.41092849 1.4132903 22.05348394 0 27 C-18.15 27 -36.3 27 -55 27 C-55 28.65 -55 30.3 -55 32 C-57 29 -57 29 -57 25 C-38.19 25 -19.38 25 0 25 C0 16.75 0 8.5 0 0 Z " fill="#11033C" transform="translate(752,142)"/>
<path d="M0 0 C-0.65226563 0.30292969 -1.30453125 0.60585937 -1.9765625 0.91796875 C-13.84445968 6.60685751 -19.93167769 13.60876315 -24.375 26 C-28.17656859 39.40052927 -26.90156141 55.04587342 -22 68 C-22.99 67.67 -23.98 67.34 -25 67 C-31.07736595 54.2151733 -31.05171 36.9709024 -26.65625 23.703125 C-26.33140625 22.86007813 -26.33140625 22.86007813 -26 22 C-25.34 22 -24.68 22 -24 22 C-23.94585938 20.97777344 -23.89171875 19.95554688 -23.8359375 18.90234375 C-22.8071113 14.09955229 -20.97678551 11.98733725 -17.625 8.5625 C-17.13 8.02173828 -16.635 7.48097656 -16.125 6.92382812 C-14.82111126 5.54498322 -13.41550676 4.26399357 -12 3 C-11.01 3 -10.02 3 -9 3 C-9 2.34 -9 1.68 -9 1 C-5.47051709 -0.66670026 -3.71727674 -1.13583456 0 0 Z " fill="#13063A" transform="translate(886,117)"/>
<path d="M0 0 C0 6.6 0 13.2 0 20 C-5.28 20.33 -10.56 20.66 -16 21 C-16 20.34 -16 19.68 -16 19 C-11.71 18.34 -7.42 17.68 -3 17 C-3 12.38 -3 7.76 -3 3 C-6.63 3 -10.26 3 -14 3 C-14 3.66 -14 4.32 -14 5 C-14.86882813 5.37769531 -15.73765625 5.75539063 -16.6328125 6.14453125 C-20.41025939 8.22607101 -22.9343473 10.59102467 -25.875 13.6875 C-26.37257813 14.19861328 -26.87015625 14.70972656 -27.3828125 15.23632812 C-28.59558176 16.48408112 -29.79880719 17.74109864 -31 19 C-31.99 18.67 -32.98 18.34 -34 18 C-33.34 18 -32.68 18 -32 18 C-31.814375 17.319375 -31.62875 16.63875 -31.4375 15.9375 C-28.38104028 9.691691 -22.49989154 4.49706258 -16 2 C-10.59665355 0.63748468 -5.57910156 0 0 0 Z " fill="#7341CE" transform="translate(668,114)"/>
<path d="M0 0 C4.62 0 9.24 0 14 0 C14 0.33 14 0.66 14 1 C10.04 1 6.08 1 2 1 C2 6.94 2 12.88 2 19 C5.96 19 9.92 19 14 19 C14 41.44 14 63.88 14 87 C13.67 87 13.34 87 13 87 C13 65.22 13 43.44 13 21 C9.04 21 5.08 21 1 21 C0 20 0 20 -0.11352539 18.05053711 C-0.10567017 16.8015564 -0.10567017 16.8015564 -0.09765625 15.52734375 C-0.09443359 14.62822266 -0.09121094 13.72910156 -0.08789062 12.80273438 C-0.07951172 11.85720703 -0.07113281 10.91167969 -0.0625 9.9375 C-0.05798828 8.98810547 -0.05347656 8.03871094 -0.04882812 7.06054688 C-0.03700128 4.70700469 -0.01906521 2.35349468 0 0 Z " fill="#180546" transform="translate(457,116)"/>
<path d="M0 0 C0.66 0 1.32 0 2 0 C5.44319702 8.18639977 5.40585514 15.98995391 5.328125 24.71875 C5.32506227 26.22806611 5.32319006 27.73738506 5.32244873 29.2467041 C5.31787248 32.3901675 5.30354121 35.53337088 5.28125 38.67675781 C5.25277407 42.71316934 5.24201612 46.74937857 5.2375679 50.78588104 C5.23342356 53.89300568 5.22361756 57.00008924 5.21169281 60.10719299 C5.20598641 61.59680351 5.20122892 63.08641796 5.19742584 64.57603455 C5.19058811 66.64646464 5.17697304 68.7167311 5.16113281 70.78710938 C5.15430481 71.96575562 5.14747681 73.14440186 5.14044189 74.35876465 C5 77 5 77 4 78 C2.5112814 78.08669432 1.018555 78.10703494 -0.47265625 78.09765625 C-1.37177734 78.09443359 -2.27089844 78.09121094 -3.19726562 78.08789062 C-4.61555664 78.07532227 -4.61555664 78.07532227 -6.0625 78.0625 C-7.01189453 78.05798828 -7.96128906 78.05347656 -8.93945312 78.04882812 C-11.29303065 78.0370011 -13.64648477 78.02052025 -16 78 C-16 77.34 -16 76.68 -16 76 C-9.4 76 -2.8 76 4 76 C3.93686799 67.8106268 3.86127811 59.62165069 3.76428509 51.43261814 C3.71972493 47.62933571 3.68043817 43.82615686 3.65356445 40.02270508 C3.62738692 36.34610051 3.58688517 32.66989765 3.53681374 28.99354362 C3.52024195 27.59711678 3.50866775 26.20062061 3.50238609 24.80410957 C3.46731194 17.71766912 3.35726529 11.35441701 0.63825989 4.7386322 C0 3 0 3 0 0 Z " fill="#100337" transform="translate(840,127)"/>
<path d="M0 0 C1.62610337 4.22786875 0.65453403 5.03639791 -1 10 C9.89 10 20.78 10 32 10 C31.505 5.545 31.505 5.545 31 1 C33 3 33 3 34 12 C21.46 12 8.92 12 -4 12 C-2.875 4.125 -2.875 4.125 0 0 Z " fill="#1E0A4F" transform="translate(699,139)"/>
<path d="M0 0 C1.07121094 -0.00708984 2.14242187 -0.01417969 3.24609375 -0.02148438 C8.7270993 0.02288242 12.32814064 0.06878882 16.875 3.4375 C16.875 4.0975 16.875 4.7575 16.875 5.4375 C16.31554687 5.2209375 15.75609375 5.004375 15.1796875 4.78125 C6.01025532 1.59700988 -3.98758399 0.74020769 -13.125 4.4375 C-17.93149806 7.15962673 -22.44885198 10.28185442 -26.125 14.4375 C-26.125 10.8075 -26.125 7.1775 -26.125 3.4375 C-32.725 3.4375 -39.325 3.4375 -46.125 3.4375 C-46.125 3.1075 -46.125 2.7775 -46.125 2.4375 C-39.195 2.4375 -32.265 2.4375 -25.125 2.4375 C-24.795 4.0875 -24.465 5.7375 -24.125 7.4375 C-22.475 7.1075 -20.825 6.7775 -19.125 6.4375 C-19.125 5.7775 -19.125 5.1175 -19.125 4.4375 C-12.85585526 -0.07235484 -7.57834915 -0.14238111 0 0 Z " fill="#1B0A48" transform="translate(418.125,112.5625)"/>
<path d="M0 0 C0.66 0.33 1.32 0.66 2 1 C0.04709472 2.83943372 -1.91181918 4.67159131 -3.875 6.5 C-4.70837891 7.28697266 -4.70837891 7.28697266 -5.55859375 8.08984375 C-9.7734375 12 -9.7734375 12 -12 12 C-12.33 29.82 -12.66 47.64 -13 66 C-13.33 66 -13.66 66 -14 66 C-14.10153917 58.56196775 -14.17152433 51.1241147 -14.21972656 43.68554688 C-14.23982405 41.15585653 -14.26710668 38.62621254 -14.30175781 36.09667969 C-14.35035556 32.45756583 -14.37298812 28.819067 -14.390625 25.1796875 C-14.42159271 23.48717361 -14.42159271 23.48717361 -14.45318604 21.76046753 C-14.45535604 14.14238415 -13.52862439 10.61968567 -8.18359375 5.13671875 C-7.60738281 4.65847656 -7.03117188 4.18023437 -6.4375 3.6875 C-5.85871094 3.19636719 -5.27992188 2.70523438 -4.68359375 2.19921875 C-3 1 -3 1 0 0 Z " fill="#0D0829" transform="translate(649,136)"/>
<path d="M0 0 C0.515625 0.66 1.03125 1.32 1.5625 2 C9.35987956 11.59677484 17.04058972 19.84191799 30.08398438 21.22021484 C39.40789292 21.78216495 48.16084023 21.27087851 57 18 C54.72432082 21.41351877 53.82836952 21.85646545 50 23 C47.0456543 23.22705078 47.0456543 23.22705078 43.82421875 23.1953125 C42.66728516 23.18886719 41.51035156 23.18242187 40.31835938 23.17578125 C39.12017578 23.15902344 37.92199219 23.14226562 36.6875 23.125 C35.46998047 23.11597656 34.25246094 23.10695312 32.99804688 23.09765625 C29.99849726 23.07413037 26.99934956 23.04125653 24 23 C24 22.34 24 21.68 24 21 C23.175 20.938125 22.35 20.87625 21.5 20.8125 C13.9850087 19.06794845 7.7960743 13.95012967 3 8 C3 7.34 3 6.68 3 6 C2.01 5.67 1.02 5.34 0 5 C0 3.35 0 1.7 0 0 Z " fill="#160740" transform="translate(948,184)"/>
<path d="M0 0 C0 0.33 0 0.66 0 1 C-1.14597656 1.04898438 -2.29195312 1.09796875 -3.47265625 1.1484375 C-5.00262535 1.22352801 -6.53257218 1.29907306 -8.0625 1.375 C-8.81466797 1.4059375 -9.56683594 1.436875 -10.34179688 1.46875 C-16.25214402 1.77578102 -21.24449225 2.87274683 -26.75 5.125 C-29 6 -29 6 -32 6 C-32.25523437 6.58265625 -32.51046875 7.1653125 -32.7734375 7.765625 C-34.11741087 10.21388223 -35.61810296 11.81743248 -37.625 13.75 C-38.57246094 14.67039063 -38.57246094 14.67039063 -39.5390625 15.609375 C-40.02117188 16.06828125 -40.50328125 16.5271875 -41 17 C-41.99 16.67 -42.98 16.34 -44 16 C-33.12311771 1.80963039 -17.55426503 -4.03097938 0 0 Z " fill="#7140CB" transform="translate(995,115)"/>
<path d="M0 0 C-1.66443426 3.65695413 -3.85128718 6.19976194 -6.5625 9.12109375 C-10.46425009 14.22093558 -10.27800303 19.22079373 -10.1875 25.375 C-10.18685547 26.2 -10.18621094 27.025 -10.18554688 27.875 C-10.15122404 32.68019702 -9.79825606 37.26155203 -9 42 C-14.29501205 34.05748192 -13.88579005 25.25206628 -13 16 C-11.52730236 9.9499989 -8.24043829 5.46361926 -4 1 C-2 0 -2 0 0 0 Z " fill="#210C53" transform="translate(892,135)"/>
<path d="M0 0 C2.87402727 2.5958956 4.24432948 4.21369298 5 8 C2.92692768 9.53682963 0.84352513 11.05399635 -1.25 12.5625 C-2.12978516 13.21895508 -2.12978516 13.21895508 -3.02734375 13.88867188 C-7.41491979 17.01913343 -7.41491979 17.01913343 -10.26953125 16.92578125 C-12.98915435 15.47081359 -14.85680143 13.1954717 -17 11 C-20.86702589 8.24846235 -24.13149208 7.42717781 -28.8125 6.8125 C-29.97394531 6.65394531 -31.13539063 6.49539062 -32.33203125 6.33203125 C-33.21246094 6.22246094 -34.09289062 6.11289063 -35 6 C-35 5.34 -35 4.68 -35 4 C-23.39746083 3.44258264 -23.39746083 3.44258264 -18 7 C-17.05253906 7.59748047 -17.05253906 7.59748047 -16.0859375 8.20703125 C-12.412923 10.62887946 -12.412923 10.62887946 -11 12 C-11 12.99 -11 13.98 -11 15 C-9.35 14.67 -7.7 14.34 -6 14 C-6 13.34 -6 12.68 -6 12 C-5.34 12 -4.68 12 -4 12 C-4 11.34 -4 10.68 -4 10 C-2.02 9.34 -0.04 8.68 2 8 C1.34 5.36 0.68 2.72 0 0 Z " fill="#6E40C3" transform="translate(929,127)"/>
<path d="M0 0 C0.99 0.33 1.98 0.66 3 1 C0.05716206 9.58327732 -6.14557927 13.98549708 -13.96484375 18.01171875 C-19.85611736 20.6544126 -25.08541108 21.13782918 -31.5 21.125 C-32.7890625 21.12757813 -34.078125 21.13015625 -35.40625 21.1328125 C-38.42209033 21.02135753 -41.07792088 20.70804225 -44 20 C-44 19.67 -44 19.34 -44 19 C-42.73285156 18.95101562 -41.46570313 18.90203125 -40.16015625 18.8515625 C-38.46091904 18.77645809 -36.76170124 18.70091368 -35.0625 18.625 C-33.81629883 18.57859375 -33.81629883 18.57859375 -32.54492188 18.53125 C-26.83401945 18.26459308 -21.54079131 17.37954396 -16 16 C-14.33465333 15.66013333 -12.66870487 15.32297514 -11 15 C-11 14.34 -11 13.68 -11 13 C-6.61538462 10 -6.61538462 10 -4 10 C-3.71125 9.278125 -3.4225 8.55625 -3.125 7.8125 C-2.08333333 5.20833333 -1.04166667 2.60416667 0 0 Z " fill="#6E40C4" transform="translate(747,185)"/>
<path d="M0 0 C0.33 0 0.66 0 1 0 C1 1.65 1 3.3 1 5 C-26.225 5.495 -26.225 5.495 -54 6 C-53.25049134 11.6077261 -53.25049134 11.6077261 -51.9375 16.9375 C-51.628125 17.948125 -51.31875 18.95875 -51 20 C-54 19 -54 19 -54.94921875 17.109375 C-57.41063747 9.24325381 -57.41063747 9.24325381 -57 5 C-54.46813122 3.73406561 -52.65025209 3.84081806 -49.81591797 3.79467773 C-48.19446365 3.7647599 -48.19446365 3.7647599 -46.54025269 3.73423767 C-45.36939117 3.71752518 -44.19852966 3.70081268 -42.9921875 3.68359375 C-41.79643097 3.66281265 -40.60067444 3.64203156 -39.36868286 3.62062073 C-35.53751536 3.55507711 -31.70627762 3.49621782 -27.875 3.4375 C-25.28254473 3.39431937 -22.69009664 3.35070523 -20.09765625 3.30664062 C-13.73184573 3.19939081 -7.36596487 3.0976334 -1 3 C-0.67 2.01 -0.34 1.02 0 0 Z " fill="#7742D7" transform="translate(750,161)"/>
<path d="M0 0 C0.99 0.33 1.98 0.66 3 1 C2.24976563 1.55300781 1.49953125 2.10601562 0.7265625 2.67578125 C-7.55425824 9.73464706 -11.65900261 20.42907459 -13 31 C-13.11574816 34.62617288 -13.09444974 38.2474756 -13.0625 41.875 C-13.05798828 42.84953125 -13.05347656 43.8240625 -13.04882812 44.828125 C-13.03710906 47.21881434 -13.02070219 49.6093744 -13 52 C-16.0668065 47.39979025 -15.32866341 42.78651092 -15.3125 37.375 C-15.32861328 36.31925781 -15.34472656 35.26351562 -15.36132812 34.17578125 C-15.3703318 19.64385774 -9.70939935 10.39282794 0 0 Z " fill="#120539" transform="translate(688,121)"/>
<path d="M0 0 C3.95906817 1.43308135 7.28718181 3.33141949 10.8125 5.625 C11.78832031 6.25664062 12.76414062 6.88828125 13.76953125 7.5390625 C14.50558594 8.02117187 15.24164062 8.50328125 16 9 C14.66803585 12.94758287 13.03695238 15.34755485 10.0625 18.25 C9.37285156 18.93578125 8.68320312 19.6215625 7.97265625 20.328125 C6 22 6 22 3 23 C4.24508247 19.2647526 5.94619949 18.39941469 9 16 C10.89290509 14.06295292 10.89290509 14.06295292 12 12 C10.74157232 8.22471696 9.37506571 7.89332955 6 6 C5.34 5.34 4.68 4.68 4 4 C2.68 4 1.36 4 0 4 C-1.78969026 6.42672567 -1.78969026 6.42672567 -3 9 C-4.32 8.67 -5.64 8.34 -7 8 C-6.21625 7.236875 -5.4325 6.47375 -4.625 5.6875 C-1.92742283 3.09108195 -1.92742283 3.09108195 0 0 Z " fill="#6C40C0" transform="translate(580,177)"/>
<path d="M0 0 C2.125 0.40234375 2.125 0.40234375 4 1 C3.16855469 1.74443359 3.16855469 1.74443359 2.3203125 2.50390625 C1.23363281 3.52291016 1.23363281 3.52291016 0.125 4.5625 C-0.59429688 5.22378906 -1.31359375 5.88507813 -2.0546875 6.56640625 C-4.61495266 9.44848674 -4.61495266 9.44848674 -6 16 C3.24 16 12.48 16 22 16 C22 16.33 22 16.66 22 17 C11.77 17 1.54 17 -9 17 C-7.94592434 9.62147039 -5.96067401 4.65677657 0 0 Z " fill="#100633" transform="translate(974,133)"/>
<path d="M0 0 C6.6 0 13.2 0 20 0 C20.66 1.98 21.32 3.96 22 6 C22.598125 5.649375 23.19625 5.29875 23.8125 4.9375 C26 4 26 4 29 5 C27.50260417 6.20442708 26.00520833 7.40885417 24.5078125 8.61328125 C22.74707893 10.12270545 22.74707893 10.12270545 21 13 C20.34 13 19.68 13 19 13 C19 9.37 19 5.74 19 2 C12.73 2 6.46 2 0 2 C0 1.34 0 0.68 0 0 Z " fill="#1C0C47" transform="translate(769,114)"/>
<path d="M0 0 C4.32104659 1.65601607 8.32543497 3.70153975 12.40234375 5.87890625 C18.78452693 8.63332215 25.5542929 8.11970593 32.375 8.0625 C33.39722656 8.05798828 34.41945313 8.05347656 35.47265625 8.04882812 C37.98183194 8.037103 40.4908849 8.02069176 43 8 C36.05223829 12.63184114 26.13266865 11.80861803 18.07421875 10.5390625 C11.85314227 8.85232725 6.20814264 5.7772186 1 2 C0.67 1.34 0.34 0.68 0 0 Z " fill="#6C3FC2" transform="translate(533,195)"/>
<path d="M0 0 C0.33 0 0.66 0 1 0 C0.56325416 4.58583127 0.06256707 8.96914852 -1.0625 13.4375 C-2.97586219 21.81570716 -2.04939168 28.94189888 0.34375 37.140625 C1.04173742 40.1818559 1.11040026 42.89039271 1 46 C-4.62328062 40.37671938 -4.3520534 30.10878409 -4.4375 22.5625 C-4.42619464 14.43233124 -3.05009564 7.58438961 0 0 Z " fill="#693EBD" transform="translate(524,137)"/>
<path d="M0 0 C8.24550898 2.53293413 8.24550898 2.53293413 11.625 4.625 C17.40975498 7.97406868 24.95481116 7.12317311 31.4375 7.0625 C32.82098633 7.05573242 32.82098633 7.05573242 34.23242188 7.04882812 C36.48835048 7.03713938 38.74413967 7.02075455 41 7 C34.19350894 11.53766071 25.00403131 10.80666079 17.140625 9.5390625 C10.8727972 7.84235752 5.2811144 4.75296215 0 1 C0 0.67 0 0.34 0 0 Z " fill="#6C3FC1" transform="translate(873,196)"/>
<path d="M0 0 C0.90814453 -0.01998047 1.81628906 -0.03996094 2.75195312 -0.06054688 C9.29312344 -0.05586458 14.06892563 1.35544784 19.8125 4.4375 C20.4725 4.7675 21.1325 5.0975 21.8125 5.4375 C21.8125 6.0975 21.8125 6.7575 21.8125 7.4375 C22.534375 7.664375 23.25625 7.89125 24 8.125 C27.34459313 9.68581013 29.32853959 11.7406287 31.8125 14.4375 C31.4825 15.4275 31.1525 16.4175 30.8125 17.4375 C30.19375 16.57125 29.575 15.705 28.9375 14.8125 C23.24079099 8.02459039 14.4494576 3.90603169 5.8125 2.4375 C-0.92339735 2.00344456 -7.5490382 2.20243734 -14.1875 3.4375 C-9.65067573 -0.47427088 -5.76093309 -0.04403771 0 0 Z " fill="#15073F" transform="translate(900.1875,112.5625)"/>
<path d="M0 0 C0.33 0 0.66 0 1 0 C1 6.6 1 13.2 1 20 C-4.61 19.67 -10.22 19.34 -16 19 C-16.66 20.32 -17.32 21.64 -18 23 C-19.625 24.75 -19.625 24.75 -21 26 C-21.25 23.1875 -21.25 23.1875 -21 20 C-18.60313809 17.44255429 -17.16443963 17.01784467 -13.65234375 16.63671875 C-11.81349609 16.66185547 -11.81349609 16.66185547 -9.9375 16.6875 C-8.09478516 16.69330078 -8.09478516 16.69330078 -6.21484375 16.69921875 C-3 17 -3 17 0 19 C0 12.73 0 6.46 0 0 Z " fill="#0E0432" transform="translate(514,82)"/>
<path d="M0 0 C1.02567775 3.17753711 0.90925096 5.12839382 0.0703125 8.3359375 C-1.40425677 15.08426038 -1.21707111 21.74799628 -1.125 28.625 C-1.11597656 29.91535156 -1.10695313 31.20570313 -1.09765625 32.53515625 C-1.0742848 35.69030249 -1.04152091 38.84504926 -1 42 C-5.74391186 33.12848759 -5.56187859 18.63778774 -3.10546875 8.9375 C-2.16580483 5.9093251 -1.16649558 2.94748436 0 0 Z " fill="#693EBA" transform="translate(863,137)"/>
<path d="M0 0 C-1 3 -1 3 -2.60058594 4.15478516 C-9.48220103 7.40977335 -15.726761 7.53633357 -23.25 7.375 C-24.98636719 7.37306641 -24.98636719 7.37306641 -26.7578125 7.37109375 C-32.02781886 7.31632463 -36.1509145 7.22480925 -41 5 C-41 4.34 -41 3.68 -41 3 C-40.45214844 3.144375 -39.90429688 3.28875 -39.33984375 3.4375 C-27.49299011 6.21139744 -14.8878365 6.56533678 -3.85546875 0.8984375 C-2 0 -2 0 0 0 Z " fill="#15073F" transform="translate(739,200)"/>
<path d="M0 0 C18.64942529 -0.57219828 18.64942529 -0.57219828 25 3 C25.495 4.485 25.495 4.485 26 6 C25.44054687 5.7834375 24.88109375 5.566875 24.3046875 5.34375 C13.73054708 1.67170124 3.34456005 1.7194924 -7 6 C-7 5.01 -7 4.02 -7 3 C-3.535 2.505 -3.535 2.505 0 2 C0 1.34 0 0.68 0 0 Z " fill="#160A3D" transform="translate(806,112)"/>
<path d="M0 0 C0.66 0 1.32 0 2 0 C1.80664062 0.64066406 1.61328125 1.28132812 1.4140625 1.94140625 C1.15367187 2.80636719 0.89328125 3.67132813 0.625 4.5625 C0.36976563 5.40941406 0.11453125 6.25632813 -0.1484375 7.12890625 C-0.42945313 8.07636719 -0.71046875 9.02382812 -1 10 C-1.35964844 11.07378906 -1.71929688 12.14757812 -2.08984375 13.25390625 C-3.17767114 17.73127306 -3.25706177 21.79124554 -3.1875 26.375 C-3.18685547 27.17421875 -3.18621094 27.9734375 -3.18554688 28.796875 C-3.1457564 34.2614332 -2.67907377 39.57827506 -2 45 C-2.66 45 -3.32 45 -4 45 C-8.01572559 32.95282324 -6.05431469 14.92161581 -2 3 C-1.34 3 -0.68 3 0 3 C0 2.01 0 1.02 0 0 Z " fill="#180744" transform="translate(524,133)"/>
<path d="M0 0 C0.33 0 0.66 0 1 0 C1.33 3.3 1.66 6.6 2 10 C8.27 10.33 14.54 10.66 21 11 C21 11.66 21 12.32 21 13 C13.74 13 6.48 13 -1 13 C-1 2 -1 2 0 0 Z " fill="#210D54" transform="translate(492,104)"/>
<path d="M0 0 C0.66 0.33 1.32 0.66 2 1 C1.65066406 1.67546875 1.30132813 2.3509375 0.94140625 3.046875 C0.25884766 4.38492188 0.25884766 4.38492188 -0.4375 5.75 C-0.88996094 6.63171875 -1.34242188 7.5134375 -1.80859375 8.421875 C-3.17346553 11.1645798 -3.17346553 11.1645798 -4 15 C8.21 15 20.42 15 33 15 C33 15.33 33 15.66 33 16 C20.46 16 7.92 16 -5 16 C-3.875 3.625 -3.875 3.625 0 0 Z " fill="#7245C6" transform="translate(545,136)"/>
<path d="M0 0 C0.66 0 1.32 0 2 0 C-0.32750762 5.2970863 -4.46256596 8.56862695 -9.4375 11.375 C-15.41289908 12.83241441 -20.34671672 12.26131331 -26 10 C-22.76982095 9.00377655 -20.10729531 9.03897001 -16.75 9.25 C-10.94261108 9.31211111 -7.35761276 7.78876183 -3 4 C-1.1873495 1.83779383 -1.1873495 1.83779383 0 0 Z " fill="#230D56" transform="translate(1002,177)"/>
<path d="M0 0 C1.31871094 -0.01417969 2.63742187 -0.02835938 3.99609375 -0.04296875 C7.2175867 0.16521097 8.90170999 0.46581234 11.5625 2.1875 C11.5625 2.8475 11.5625 3.5075 11.5625 4.1875 C12.18125 4.455625 12.8 4.72375 13.4375 5 C15.5625 6.1875 15.5625 6.1875 17.5625 9.1875 C17.1875 11.375 17.1875 11.375 16.5625 13.1875 C16.046875 12.115 15.53125 11.0425 15 9.9375 C12.67153166 5.96540694 10.01471331 3.52078313 5.5625 2.1875 C-1.06888851 1.40419505 -6.79230295 1.4240353 -12.4375 5.1875 C-11.625 3.25 -11.625 3.25 -10.4375 1.1875 C-6.90252138 0.00917379 -3.67856929 0.00352691 0 0 Z " fill="#7042C7" transform="translate(984.4375,129.8125)"/>
<path d="M0 0 C3.47900249 -0.08825361 6.95771117 -0.14080635 10.4375 -0.1875 C11.41138672 -0.21263672 12.38527344 -0.23777344 13.38867188 -0.26367188 C19.49836528 -0.32497315 25.55759048 -0.09062262 31 3 C31.33 3.99 31.66 4.98 32 6 C31.33613281 5.79503906 30.67226563 5.59007813 29.98828125 5.37890625 C29.10527344 5.10949219 28.22226562 4.84007813 27.3125 4.5625 C26.44238281 4.29566406 25.57226562 4.02882813 24.67578125 3.75390625 C19.05250508 2.16953793 13.99759668 1.87418797 8.1875 1.9375 C7.39923828 1.94201172 6.61097656 1.94652344 5.79882812 1.95117188 C3.86585239 1.96288688 1.93291607 1.98082002 0 2 C0 1.34 0 0.68 0 0 Z " fill="#14063C" transform="translate(549,113)"/>
<path d="M0 0 C0 0.33 0 0.66 0 1 C-1.7015625 1.07347656 -1.7015625 1.07347656 -3.4375 1.1484375 C-4.95835398 1.2235414 -6.47918625 1.29908584 -8 1.375 C-8.74378906 1.4059375 -9.48757813 1.436875 -10.25390625 1.46875 C-14.09306631 1.669054 -17.60013553 2.07704633 -21.3125 3.1015625 C-24.79752683 3.95066861 -25.78854342 4.00934024 -29 3 C-19.38283486 -1.31712423 -10.33196283 -2.34470743 0 0 Z " fill="#6239B2" transform="translate(571,115)"/>
<path d="M0 0 C2.53905844 1.77734091 3.50147198 2.85426876 4.5 5.75 C3.571875 5.09 2.64375 4.43 1.6875 3.75 C-3.73913444 0.64592107 -9.76621971 0.98905687 -15.76171875 2.2109375 C-17.36090497 2.65857989 -18.93530497 3.19366399 -20.5 3.75 C-20.5 3.09 -20.5 2.43 -20.5 1.75 C-13.68432235 -1.80600573 -7.34183249 -2.62208303 0 0 Z " fill="#7041C8" transform="translate(723.5,130.25)"/>
<path d="M0 0 C0.66 0 1.32 0 2 0 C0.70480717 3.88557849 -0.83732117 4.91395791 -4.27734375 6.98046875 C-9.90057163 9.0861538 -16.11568856 8.79072494 -22 8 C-24.95703125 6.46875 -24.95703125 6.46875 -27 5 C-26.34 4.67 -25.68 4.34 -25 4 C-23.89591797 4.44472656 -23.89591797 4.44472656 -22.76953125 4.8984375 C-19.65169543 6.13853581 -17.0272814 6.40479463 -13.6875 6.625 C-12.08455078 6.73714844 -12.08455078 6.73714844 -10.44921875 6.8515625 C-9.64097656 6.90054688 -8.83273437 6.94953125 -8 7 C-8 6.34 -8 5.68 -8 5 C-7.05125 4.54625 -6.1025 4.0925 -5.125 3.625 C-1.99686321 2.19761746 -1.99686321 2.19761746 0 0 Z " fill="#160742" transform="translate(576,180)"/>
<path d="M0 0 C0.99 0.33 1.98 0.66 3 1 C5.49105024 1.09635462 7.94740703 1.1393246 10.4375 1.125 C11.75621094 1.12757813 13.07492187 1.13015625 14.43359375 1.1328125 C17.20238454 1.0297031 19.39077114 0.84082567 22 0 C22 0.66 22 1.32 22 2 C19.36 2.33 16.72 2.66 14 3 C14 3.66 14 4.32 14 5 C12.41632253 4.85795259 10.83306682 4.71119847 9.25 4.5625 C8.36828125 4.48128906 7.4865625 4.40007812 6.578125 4.31640625 C4.30649548 4.03761535 2.20148177 3.61209423 0 3 C0 2.01 0 1.02 0 0 Z " fill="#6A3CC0" transform="translate(551,186)"/>
<path d="M0 0 C0.66 0 1.32 0 2 0 C1.99476318 0.61931396 1.98952637 1.23862793 1.98413086 1.87670898 C1.96311927 4.73029533 1.95026386 7.58386531 1.9375 10.4375 C1.92912109 11.41138672 1.92074219 12.38527344 1.91210938 13.38867188 C1.89217922 19.34778969 2.22390482 25.09067683 3 31 C2.34 31 1.68 31 1 31 C-0.11911712 27.64264863 -0.11365586 25.11794614 -0.09765625 21.58203125 C-0.09443359 20.32841797 -0.09121094 19.07480469 -0.08789062 17.78320312 C-0.07951172 16.47287109 -0.07113281 15.16253906 -0.0625 13.8125 C-0.05748317 12.47721519 -0.05292059 11.14192859 -0.04882812 9.80664062 C-0.03702695 6.53771527 -0.02056297 3.26888009 0 0 Z " fill="#220D55" transform="translate(943,148)"/>
<path d="M0 0 C-1.32984963 2.92183307 -2.82630723 5.08447758 -5 7.4375 C-7.39238918 10.14498434 -8.9370399 12.49223168 -10 16 C-11 14 -11 14 -10.375 10.75 C-8.65867375 6.06911022 -5.72733452 0 0 0 Z " fill="#14093A" transform="translate(892,135)"/>
<path d="M0 0 C0 0.66 0 1.32 0 2 C-0.99 2 -1.98 2 -3 2 C-3.20625 2.53625 -3.4125 3.0725 -3.625 3.625 C-5.53250426 6.91978009 -8.04819384 9.59363628 -11 12 C-11.66 12 -12.32 12 -13 12 C-13 12.66 -13 13.32 -13 14 C-13.66 14 -14.32 14 -15 14 C-12.3679518 8.32425626 -6.97703637 0 0 0 Z " fill="#6E3FC6" transform="translate(542,119)"/>
<path d="M0 0 C1.43838552 0.79005662 2.87567415 1.58211045 4.3125 2.375 C5.11300781 2.81585938 5.91351562 3.25671875 6.73828125 3.7109375 C8.53527943 4.73513335 10.27900708 5.85267138 12 7 C11.40716379 10.39192363 10.23256811 12.2107757 7.9375 14.75 C7.38964844 15.36359375 6.84179688 15.9771875 6.27734375 16.609375 C5.85582031 17.06828125 5.43429687 17.5271875 5 18 C5 14.89448334 5.5393715 13.64738916 7 11 C7.66 11 8.32 11 9 11 C9 9.68 9 8.36 9 7 C7.68 6.67 6.36 6.34 5 6 C5 5.34 5 4.68 5 4 C2.525 3.01 2.525 3.01 0 2 C0 1.34 0 0.68 0 0 Z " fill="#6C40BF" transform="translate(922,178)"/>
<path d="M0 0 C1.44098611 0.76429661 2.87766054 1.53672555 4.3125 2.3125 C5.51326172 2.95638672 5.51326172 2.95638672 6.73828125 3.61328125 C8.83787272 4.90059554 10.35447721 6.18406708 12 8 C8.00642372 7.4294891 5.42215525 6.07130449 2 4 C-0.95508863 3.65629795 -0.95508863 3.65629795 -2.38671875 5.3125 C-2.81597656 5.869375 -3.24523437 6.42625 -3.6875 7 C-4.8321875 8.485 -4.8321875 8.485 -6 10 C-7.32 9.67 -8.64 9.34 -10 9 C-8.63875 8.1646875 -8.63875 8.1646875 -7.25 7.3125 C-4.15546609 5.1106201 -2.20718532 3.05610275 0 0 Z " fill="#6D40C1" transform="translate(735,177)"/>
<path d="M0 0 C1.65 0 3.3 0 5 0 C5 0.66 5 1.32 5 2 C5.60328125 2.19335938 6.2065625 2.38671875 6.828125 2.5859375 C7.62734375 2.84632813 8.4265625 3.10671875 9.25 3.375 C10.03890625 3.63023437 10.8278125 3.88546875 11.640625 4.1484375 C14 5 14 5 16.0625 6.0625 C18.93158457 7.45076673 21.8591102 7.63758964 25 8 C25 8.33 25 8.66 25 9 C17.32871501 9.75208676 10.83844496 7.4373136 4 4 C1.609375 1.828125 1.609375 1.828125 0 0 Z " fill="#683CBB" transform="translate(959,197)"/>
<path d="M0 0 C1.30062431 3.81516464 0.89369853 7.27561763 0.5625 11.25 C0.46066406 12.51328125 0.35882812 13.7765625 0.25390625 15.078125 C0.17011719 16.04234375 0.08632813 17.0065625 0 18 C-0.33 18 -0.66 18 -1 18 C-1.33 21.3 -1.66 24.6 -2 28 C-2.33 28 -2.66 28 -3 28 C-3.33706931 18.16256984 -3.02149686 9.49613298 0 0 Z " fill="#6037B0" transform="translate(677,140)"/>
<path d="M0 0 C1.11246094 -0.00257812 2.22492187 -0.00515625 3.37109375 -0.0078125 C6.22627492 0.11100777 8.78757946 0.47146731 11.5625 1.125 C11.5625 1.455 11.5625 1.785 11.5625 2.125 C-0.8125 2.62 -0.8125 2.62 -13.4375 3.125 C-8.88266019 0.08844012 -5.43492796 -0.01256631 0 0 Z " fill="#6138AF" transform="translate(983.4375,113.875)"/>
<path d="M0 0 C1.32 0 2.64 0 4 0 C4 0.66 4 1.32 4 2 C4.59554687 2.26039062 5.19109375 2.52078125 5.8046875 2.7890625 C8.14234169 4.07851588 9.42384575 5.33539622 11.125 7.375 C11.62257813 7.96023437 12.12015625 8.54546875 12.6328125 9.1484375 C15.3531824 12.83259559 16.2554784 15.4013888 16 20 C14.79286984 18.18930475 13.6207414 16.35355922 12.51953125 14.4765625 C8.94146399 8.49947074 5.94337659 4.63880199 0 1 C0 0.67 0 0.34 0 0 Z " fill="#160741" transform="translate(581,119)"/>
<path d="M0 0 C7.92 0 15.84 0 24 0 C24.33 0.99 24.66 1.98 25 3 C24.33613281 2.83886719 23.67226563 2.67773438 22.98828125 2.51171875 C19.37680935 1.89328369 15.83992014 1.80908333 12.1875 1.8125 C11.47916016 1.81185547 10.77082031 1.81121094 10.04101562 1.81054688 C5.02417101 1.86131531 0.74242947 2.41919018 -4 4 C-4 3.34 -4 2.68 -4 2 C-2.68 2 -1.36 2 0 2 C0 1.34 0 0.68 0 0 Z " fill="#14063D" transform="translate(488,79)"/>
<path d="M0 0 C3.22899426 -0.0875127 6.45768116 -0.14056146 9.6875 -0.1875 C11.05551758 -0.22520508 11.05551758 -0.22520508 12.45117188 -0.26367188 C21.1373981 -0.35843071 21.1373981 -0.35843071 25 3 C25 3.66 25 4.32 25 5 C24.46375 4.7834375 23.9275 4.566875 23.375 4.34375 C15.24365165 1.45498151 7.50032106 1.71524979 -1 2 C-0.67 1.34 -0.34 0.68 0 0 Z " fill="#200E50" transform="translate(410,113)"/>
<path d="M0 0 C-1.98 0.99 -1.98 0.99 -4 2 C-3.40380045 6.86896303 -2.43023178 11.32790951 -1 16 C-4 15 -4 15 -4.94921875 13.109375 C-7.41063747 5.24325381 -7.41063747 5.24325381 -7 1 C-4.53721199 -0.231394 -2.7204945 -0.07159196 0 0 Z " fill="#7540D4" transform="translate(700,165)"/>
<path d="M0 0 C0.33 0 0.66 0 1 0 C1.02578125 0.83402344 1.0515625 1.66804687 1.078125 2.52734375 C1.56465143 12.18047048 3.78523399 18.91711269 9 27 C4.77336686 25.49048817 3.16921968 22.8148346 1 19 C-0.11897869 14.88273226 -0.10222174 10.93772654 -0.0625 6.6875 C-0.05347656 5.43324219 -0.04445313 4.17898437 -0.03515625 2.88671875 C-0.01775391 1.45779297 -0.01775391 1.45779297 0 0 Z " fill="#6E42C2" transform="translate(878,156)"/>
<path d="M0 0 C5.4146739 0.43317391 8.80729382 1.48982738 13 5 C14.16796875 7.640625 14.16796875 7.640625 15 10 C14.25234375 9.50628906 13.5046875 9.01257813 12.734375 8.50390625 C11.74953125 7.86324219 10.7646875 7.22257813 9.75 6.5625 C8.77546875 5.92441406 7.8009375 5.28632813 6.796875 4.62890625 C4.41618385 3.2423864 2.68219693 2.453419 0 2 C0 1.34 0 0.68 0 0 Z " fill="#17093E" transform="translate(734,176)"/>
<path d="M0 0 C1.26328125 0.02707031 2.5265625 0.05414063 3.828125 0.08203125 C4.79234375 0.11683594 5.7565625 0.15164062 6.75 0.1875 C6.75 0.5175 6.75 0.8475 6.75 1.1875 C2.46 1.1875 -1.83 1.1875 -6.25 1.1875 C-6.58 2.5075 -6.91 3.8275 -7.25 5.1875 C-9.3125 7.4375 -9.3125 7.4375 -11.25 9.1875 C-11.5 6.375 -11.5 6.375 -11.25 3.1875 C-7.9123882 -0.41712074 -4.70765855 -0.13076829 0 0 Z " fill="#170941" transform="translate(504.25,98.8125)"/>
<path d="M0 0 C0.33 0 0.66 0 1 0 C1 6.27 1 12.54 1 19 C0.01 18.67 -0.98 18.34 -2 18 C-3.89212737 17.77820215 -5.78884472 17.59385985 -7.6875 17.4375 C-8.68136719 17.35371094 -9.67523438 17.26992187 -10.69921875 17.18359375 C-11.83810547 17.09271484 -11.83810547 17.09271484 -13 17 C-13 16.67 -13 16.34 -13 16 C-7.06 15.505 -7.06 15.505 -1 15 C-0.67 10.05 -0.34 5.1 0 0 Z " fill="#5935A0" transform="translate(513,82)"/>
<path d="M0 0 C2.72977064 -0.08126109 5.4571017 -0.14061663 8.1875 -0.1875 C9.34088867 -0.22520508 9.34088867 -0.22520508 10.51757812 -0.26367188 C15.15260383 -0.32335032 18.26770105 -0.08905704 22 3 C22 3.66 22 4.32 22 5 C21.41734375 4.79503906 20.8346875 4.59007813 20.234375 4.37890625 C13.49496004 2.16422429 7.07052165 1.35231122 0 1 C0 0.67 0 0.34 0 0 Z " fill="#1F0D4C" transform="translate(810,113)"/>
<path d="M0 0 C2.97785486 2.97785486 4.53061813 6.65599543 6.46484375 10.37109375 C7.80812821 12.67142566 9.01792264 14.25458859 11 16 C10.67 16.99 10.34 17.98 10 19 C8.70161824 17.2758698 7.41156253 15.54546768 6.125 13.8125 C5.04605469 12.36810547 5.04605469 12.36810547 3.9453125 10.89453125 C1.47230805 7.21481982 0 4.45860489 0 0 Z " fill="#6E41C3" transform="translate(677,177)"/>
<path d="M0 0 C3 3 3 3 3.14453125 6.87109375 C3.05024186 8.39433213 2.93892313 9.91659144 2.8125 11.4375 C2.76802734 12.20126953 2.72355469 12.96503906 2.67773438 13.75195312 C2.38228923 17.94289719 1.95609613 20.08780775 0 24 C0 16.08 0 8.16 0 0 Z " fill="#13053C" transform="translate(752,142)"/>
<path d="M0 0 C3.5682233 5.35233495 4.32665309 11.63026469 4 18 C0.80626843 14.80626843 0.09811818 10.93170168 -0.125 6.5390625 C-0.125 4.35560786 -0.08904106 2.18150585 0 0 Z " fill="#7342CD" transform="translate(521,165)"/>
<path d="M0 0 C0.66 0.33 1.32 0.66 2 1 C0.92492371 2.29854721 -0.16043736 3.58858361 -1.25 4.875 C-1.85328125 5.59429687 -2.4565625 6.31359375 -3.078125 7.0546875 C-4.97087634 8.97052118 -6.53657727 9.96449045 -9 11 C-7.59928507 5.70841026 -4.14512755 3.22521956 0 0 Z " fill="#6C3FC3" transform="translate(876,121)"/>
<path d="M0 0 C0.33 0 0.66 0 1 0 C1 3.63 1 7.26 1 11 C1.66 11 2.32 11 3 11 C3 10.34 3 9.68 3 9 C3.99 9.33 4.98 9.66 6 10 C4.7260411 12.03833424 3.38938077 14.03852126 2 16 C1.34 16 0.68 16 0 16 C0 10.72 0 5.44 0 0 Z " fill="#180449" transform="translate(634,116)"/>
<path d="M0 0 C0.33 0.99 0.66 1.98 1 3 C0.51789062 3.47050781 0.03578125 3.94101563 -0.4609375 4.42578125 C-1.09257813 5.04839844 -1.72421875 5.67101562 -2.375 6.3125 C-3.00148438 6.92738281 -3.62796875 7.54226562 -4.2734375 8.17578125 C-6.18086607 10.08812528 -6.18086607 10.08812528 -8 13 C-9.32 12.67 -10.64 12.34 -12 12 C-11.30132813 11.38511719 -10.60265625 10.77023438 -9.8828125 10.13671875 C-8.51769531 8.92435547 -8.51769531 8.92435547 -7.125 7.6875 C-6.22007812 6.88699219 -5.31515625 6.08648437 -4.3828125 5.26171875 C-1.86787689 3.04188943 -1.86787689 3.04188943 0 0 Z " fill="#190845" transform="translate(595,188)"/>
<path d="M0 0 C-4.2186994 2.1926135 -8.60185899 4.36894477 -13.4375 3.625 C-13.953125 3.41875 -14.46875 3.2125 -15 3 C-10.27805833 -0.77755334 -5.74071928 -0.30096975 0 0 Z " fill="#1D0C4A" transform="translate(415,132)"/>
<path d="M0 0 C0.99 0.33 1.98 0.66 3 1 C3.36458333 5.49652778 3.36458333 5.49652778 1.6875 7.8125 C0 9 0 9 -3 9 C-3.33 9.99 -3.66 10.98 -4 12 C-5.32 11.67 -6.64 11.34 -8 11 C-6.71283353 9.99421411 -5.42011342 8.99553202 -4.125 8 C-3.40570312 7.443125 -2.68640625 6.88625 -1.9453125 6.3125 C0 5 0 5 2 5 C1.34 3.35 0.68 1.7 0 0 Z " fill="#15073F" transform="translate(932,130)"/>
<path d="M0 0 C-1.58220587 0.96019364 -3.16581331 1.91807798 -4.75 2.875 C-6.07257813 3.67550781 -6.07257813 3.67550781 -7.421875 4.4921875 C-9.58274093 5.75596666 -11.74570395 6.91498835 -14 8 C-13.67 7.01 -13.34 6.02 -13 5 C-12.34 5 -11.68 5 -11 5 C-11 4.34 -11 3.68 -11 3 C-4.03571429 -1.41964286 -4.03571429 -1.41964286 0 0 Z " fill="#13073B" transform="translate(410,114)"/>
<path d="M0 0 C1.76923828 0.01353516 1.76923828 0.01353516 3.57421875 0.02734375 C4.47785156 0.03894531 5.38148438 0.05054687 6.3125 0.0625 C6.3125 0.3925 6.3125 0.7225 6.3125 1.0625 C4.58442682 1.40145656 2.85498026 1.73341525 1.125 2.0625 C-0.31939453 2.3409375 -0.31939453 2.3409375 -1.79296875 2.625 C-4.4809206 3.03127612 -6.97521019 3.14183572 -9.6875 3.0625 C-9.6875 2.4025 -9.6875 1.7425 -9.6875 1.0625 C-6.26517028 -0.07827657 -3.60076783 -0.03565117 0 0 Z " fill="#1A0B46" transform="translate(661.6875,112.9375)"/>
<path d="M0 0 C1.32 0 2.64 0 4 0 C4 0.66 4 1.32 4 2 C4.63808594 2.18175781 5.27617188 2.36351562 5.93359375 2.55078125 C7.17302734 2.92783203 7.17302734 2.92783203 8.4375 3.3125 C9.67306641 3.67794922 9.67306641 3.67794922 10.93359375 4.05078125 C11.95646484 4.52064453 11.95646484 4.52064453 13 5 C13.33 5.99 13.66 6.98 14 8 C8.76481294 6.56032356 4.36973991 4.18303389 0 1 C0 0.67 0 0.34 0 0 Z " fill="#6B3FC0" transform="translate(688,196)"/>
<path d="M0 0 C0.66 0.33 1.32 0.66 2 1 C-2.40498818 4.64984735 -6.88619368 7.47012541 -12 10 C-8.49919145 5.46881163 -5.54781322 2.01738663 0 0 Z " fill="#180744" transform="translate(649,136)"/>
<path d="M0 0 C5 7.5 5 7.5 5 11 C6.32 11.66 7.64 12.32 9 13 C6 13 6 13 3.375 10.625 C-0.05359169 6.83550392 -0.10928274 5.02700597 0 0 Z " fill="#14073D" transform="translate(967,172)"/>
<path d="M0 0 C-0.79664063 0.43699219 -0.79664063 0.43699219 -1.609375 0.8828125 C-6.46630559 3.70125032 -9.2591869 6.08937654 -12 11 C-12.703125 9.23046875 -12.703125 9.23046875 -13 7 C-11.671875 5.11328125 -11.671875 5.11328125 -9.75 3.3125 C-9.12609375 2.71050781 -8.5021875 2.10851562 -7.859375 1.48828125 C-4.91704682 -0.86681756 -3.60142934 -1.20047645 0 0 Z " fill="#7242CA" transform="translate(894,134)"/>
<path d="M0 0 C0.99 0.33 1.98 0.66 3 1 C1.56839732 2.00842453 0.12948547 3.00647891 -1.3125 4 C-2.51326172 4.8353125 -2.51326172 4.8353125 -3.73828125 5.6875 C-6 7 -6 7 -9 7 C-9 6.34 -9 5.68 -9 5 C-6.35261084 3.5393715 -5.10551666 3 -2 3 C-2 2.34 -2 1.68 -2 1 C-1.34 0.67 -0.68 0.34 0 0 Z " fill="#6D40C2" transform="translate(923,196)"/>
<path d="M0 0 C0.50789062 0.40992188 1.01578125 0.81984375 1.5390625 1.2421875 C5.5640887 4.39286344 8.95184246 6.73796061 14 8 C14 8.33 14 8.66 14 9 C10.16571972 9.36516955 8.21187268 9.11001082 4.75 7.3125 C1.92157031 4.93404776 0.97447737 3.50811852 0 0 Z " fill="#6E40C3" transform="translate(968,180)"/>
<path d="M0 0 C0.33 0 0.66 0 1 0 C0.67 3.63 0.34 7.26 0 11 C-0.99 11 -1.98 11 -3 11 C-2.53199289 6.94393835 -2.12046792 3.53411321 0 0 Z " fill="#190944" transform="translate(968,139)"/>
<path d="M0 0 C6.95115269 -0.50350402 11.28396429 -0.13500456 17 4 C17.33 4.66 17.66 5.32 18 6 C15.48995858 5.53517751 13.94157553 4.9599375 11.8125 3.5 C7.96920464 1.45024247 4.2974119 1.27151404 0 1 C0 0.67 0 0.34 0 0 Z " fill="#200C50" transform="translate(802,132)"/>
<path d="M0 0 C1.32 0.33 2.64 0.66 4 1 C0.56638098 4.63559661 -2.7973607 7.36113346 -7 10 C-7 9.01 -7 8.02 -7 7 C-6.38125 6.9175 -5.7625 6.835 -5.125 6.75 C-2.83911206 6.19416524 -2.83911206 6.19416524 -1.8125 4.0625 C-1.544375 3.381875 -1.27625 2.70125 -1 2 C-0.67 1.34 -0.34 0.68 0 0 Z " fill="#180944" transform="translate(916,175)"/>
<path d="M0 0 C0.99 0.33 1.98 0.66 3 1 C2.2575 1.53625 1.515 2.0725 0.75 2.625 C-2.17674961 5.15264739 -3.98621339 7.71827368 -6 11 C-6.33 10.01 -6.66 9.02 -7 8 C-5.56640625 5.95703125 -5.56640625 5.95703125 -3.5625 3.8125 C-2.90378906 3.09707031 -2.24507812 2.38164063 -1.56640625 1.64453125 C-1.04949219 1.10183594 -0.53257812 0.55914062 0 0 Z " fill="#190945" transform="translate(688,121)"/>
<path d="M0 0 C4.95769796 -0.29162929 8.02806853 -0.12940055 12 3 C12 3.66 12 4.32 12 5 C12.66 5 13.32 5 14 5 C13.67 5.66 13.34 6.32 13 7 C12.39671875 6.66226563 11.7934375 6.32453125 11.171875 5.9765625 C10.37265625 5.53054687 9.5734375 5.08453125 8.75 4.625 C7.96109375 4.18414062 7.1721875 3.74328125 6.359375 3.2890625 C4.26085803 2.14252177 2.1463923 1.05350448 0 0 Z " fill="#170840" transform="translate(995,115)"/>
<path d="M0 0 C0.66 0 1.32 0 2 0 C0.4404735 3.82792868 -1.83631836 6.36359864 -5 9 C-7.3125 8.8125 -7.3125 8.8125 -9 8 C-8.071875 7.4225 -7.14375 6.845 -6.1875 6.25 C-3.36854553 4.26014978 -1.95437133 2.73611987 0 0 Z " fill="#14063D" transform="translate(1002,177)"/>
<path d="M0 0 C1.98 0 3.96 0 6 0 C5.34 0.66 4.68 1.32 4 2 C3.59952556 4.32275177 3.2602896 6.65739357 3 9 C0.23776722 6.23776722 0.42143709 3.79293383 0 0 Z " fill="#1B0850" transform="translate(964,167)"/>
<path d="M0 0 C0.99 0.33 1.98 0.66 3 1 C2.04270084 2.12588014 1.08412105 3.2506715 0.125 4.375 C-0.40867187 5.00148437 -0.94234375 5.62796875 -1.4921875 6.2734375 C-2.61432007 7.55836651 -3.79371975 8.79371975 -5 10 C-4.56802365 5.2482602 -3.67230705 3.07999946 0 0 Z " fill="#6E3FC4" transform="translate(640,139)"/>
<path d="M0 0 C2.02350324 3.03525486 2.32124018 4.19426202 2.625 7.6875 C2.69976563 8.49574219 2.77453125 9.30398437 2.8515625 10.13671875 C2.90054688 10.75160156 2.94953125 11.36648437 3 12 C2.34 12 1.68 12 1 12 C0.03929566 9.11788698 -0.10581883 7.30149956 -0.0625 4.3125 C-0.05347656 3.50425781 -0.04445313 2.69601563 -0.03515625 1.86328125 C-0.02355469 1.24839844 -0.01195312 0.63351563 0 0 Z " fill="#180944" transform="translate(943,167)"/>
<path d="M0 0 C0.66 0 1.32 0 2 0 C4 3 4 3 4 6 C4.66 6 5.32 6 6 6 C5.67 7.32 5.34 8.64 5 10 C4.16121545 8.71186658 3.32913217 7.41936744 2.5 6.125 C2.0359375 5.40570313 1.571875 4.68640625 1.09375 3.9453125 C0 2 0 2 0 0 Z " fill="#6F40C6" transform="translate(525,183)"/>
<path d="M0 0 C1.258125 0.12375 2.51625 0.2475 3.8125 0.375 C4.87404297 0.47941406 4.87404297 0.47941406 5.95703125 0.5859375 C8 1 8 1 11 3 C11 3.66 11 4.32 11 5 C9.53932801 4.54917531 8.08151968 4.08906463 6.625 3.625 C5.81289063 3.36976562 5.00078125 3.11453125 4.1640625 2.8515625 C2 2 2 2 0 0 Z " fill="#1C0B49" transform="translate(726,115)"/>
<path d="M0 0 C1.98 0.99 1.98 0.99 4 2 C4 3.65 4 5.3 4 7 C4.66 7 5.32 7 6 7 C5.34 8.32 4.68 9.64 4 11 C2.68 7.37 1.36 3.74 0 0 Z " fill="#160840" transform="translate(441,124)"/>
<path d="M0 0 C0.66 0.33 1.32 0.66 2 1 C0.35 3.64 -1.3 6.28 -3 9 C-3.99 8.67 -4.98 8.34 -6 8 C-4.02 5.36 -2.04 2.72 0 0 Z " fill="#6A3EBE" transform="translate(686,125)"/>
<path d="M0 0 C0.66 0.33 1.32 0.66 2 1 C0.02 3.97 -1.96 6.94 -4 10 C-5 7 -5 7 -3.6875 3.875 C-2 1 -2 1 0 0 Z " fill="#14063C" transform="translate(953,126)"/>
<path d="M0 0 C2.18975773 3.28463659 2.99806563 6.20696275 4 10 C3.01 9.67 2.02 9.34 1 9 C-0.4783226 6.04335481 -0.06032783 3.25770263 0 0 Z " fill="#683CBC" transform="translate(695,171)"/>
<path d="M0 0 C2.125 0.375 2.125 0.375 4 1 C0.25 4 0.25 4 -2 4 C-2 4.66 -2 5.32 -2 6 C-2.66 6 -3.32 6 -4 6 C-2.84826645 3.53199953 -1.95216435 1.95216435 0 0 Z " fill="#16083F" transform="translate(549,134)"/>
<path d="M0 0 C3.67420866 0.30618405 4.78135513 0.75771784 7.3125 3.5625 C8.1478125 4.7690625 8.1478125 4.7690625 9 6 C8.67 6.66 8.34 7.32 8 8 C7.7525 7.38125 7.505 6.7625 7.25 6.125 C5.77120461 3.61104784 4.62078835 3.1465949 2 2 C1.34 1.34 0.68 0.68 0 0 Z " fill="#180745" transform="translate(568,134)"/>
<path d="M0 0 C0.66 0 1.32 0 2 0 C0.90931332 3.77545388 0.0916909 6.47043472 -3 9 C-2.67 7.02 -2.34 5.04 -2 3 C-1.34 3 -0.68 3 0 3 C0 2.01 0 1.02 0 0 Z " fill="#130739" transform="translate(524,133)"/>
<path d="M0 0 C-0.66 0 -1.32 0 -2 0 C-2 0.66 -2 1.32 -2 2 C-4.31 2.33 -6.62 2.66 -9 3 C-5.83583464 -0.30799106 -4.50236011 -1.35070803 0 0 Z " fill="#683DBB" transform="translate(656,117)"/>
<path d="M0 0 C0.66 0.33 1.32 0.66 2 1 C-0.75 3.0625 -0.75 3.0625 -4 5 C-6.203125 4.62109375 -6.203125 4.62109375 -8 4 C-6.71349294 3.30289269 -5.42059335 2.61757124 -4.125 1.9375 C-3.40570312 1.55464844 -2.68640625 1.17179687 -1.9453125 0.77734375 C-1.30335938 0.52082031 -0.66140625 0.26429687 0 0 Z " fill="#653BB4" transform="translate(886,116)"/>
</svg>
